<svg xmlns="http://www.w3.org/2000/svg" xmlns:xlink="http://www.w3.org/1999/xlink" width="800" height="800" viewBox="0 0 800 800"><defs><clipPath id="a"><circle cx="376.36" cy="376.36" r="376.36" transform="translate(0 752.721) rotate(-90)" fill="none"/></clipPath><clipPath id="c"><rect width="800" height="800"/></clipPath></defs><g id="b" clip-path="url(#c)"><rect width="800" height="800" fill="#fff"/><g transform="translate(-52.077 -52.426)"><g transform="translate(76.214 76.214)"><g transform="translate(0 0)"><g clip-path="url(#a)"><g transform="translate(22.24 141.446)"><path d="M229.174,711.276,87.644,604.695s27.992-111.535,22.182-128.161c-5.81-16.651-35.474-45.839-35.7-92.153-.085-16.965-7.592-46.39-15.328-72.33-1.086-3.673-2.188-7.253-3.257-10.722-5.42-17.414-10.459-31.979-12.579-37.993l-.017-.059a2.951,2.951,0,0,1,2.044-3.86c7.193-1.807,25.524-4.309,40.19,11.646,18.653,20.307,26.9,37.857,29.561,49.58,0,0,10.934,35.83,20.9,36.6,13.063.992,21.206-34.1,21.206-34.1,18.1-54.491,37.654-114,55.026-154.618,2.392-5.607,4.9-11.383,9.288-15.616s11.214-6.574,16.744-4.012c8.075,3.732,9,14.658,8.415,23.53-2.273,34.065-27.186,135.159-19.306,135.125,8.8-.187,35.465-121.46,61.074-172.219,3.351-6.625,17.33-20.909,29.451-16.711,17.084,5.929,10.315,36.483,8.245,46.687-9.992,49.266-43.727,159.851-36.33,162.15,7.49,2.333,40.444-93.68,57.5-133.369,2.969-6.939,6.09-14.089,11.485-19.4s13.7-8.4,20.706-5.539c6.523,2.663,10.332,9.814,11.027,16.821.713,7.015-1.137,14.013-2.969,20.824-10.934,40.852-48.553,144.549-38.264,145.457,9.874.848,32.318-55.153,50.038-82.169,5.1-7.778,18.7-18.4,26.525-13.394,6.116,3.9,7.948,16.066,4.793,26.915-6.472,22.283-19.807,47.06-28.891,68.411-32.98,77.47-65.281,144.032-127.7,200.525Z" transform="translate(-42.767 -117.866)" fill="#ffaf9f"/><g transform="translate(128.344 236.613)" opacity="0.6" style="mix-blend-mode:multiply;isolation:isolate"><path d="M57.9,146.677s20.4,26.915,30.6,64.992c7.507,28.051,2.036,86.368,2.036,86.368s17.83-55.823,14.284-85.689C99.81,170.19,57.9,146.677,57.9,146.677Z" transform="translate(-57.898 -138.907)" fill="#ffb1a7"/><path d="M58.619,145.761s64.187,17.678,86.631,28.56,60.217,34.549,60.217,34.549-74.128-24.15-89.905-32.734C94.678,164.779,58.619,145.761,58.619,145.761Z" transform="translate(-52.503 -145.761)" fill="#ffb1a7"/><path d="M156.012,168.583s-33.887,15.472-57.121,12.147C72.6,176.972,59.1,168.583,59.1,168.583s24.565,23.445,51.514,21.656C141.218,188.194,156.012,168.583,156.012,168.583Z" transform="translate(-48.904 25.003)" fill="#ffb1a7"/></g><g transform="translate(331.233)"><path d="M279.884,694.532l146.1-89.838S397.993,493.159,403.8,476.534c5.81-16.651,35.474-45.839,35.7-92.153.085-16.965,7.592-46.39,15.319-72.33,1.094-3.673,2.2-7.253,3.266-10.722,5.42-17.414,10.459-31.979,12.579-37.993l.017-.059a2.951,2.951,0,0,0-2.044-3.86c-7.193-1.807-25.524-4.309-40.19,11.646-18.653,20.307-26.9,37.857-29.561,49.58,0,0-10.934,35.83-20.9,36.6-13.063.992-21.206-34.1-21.206-34.1-18.1-54.491-37.654-114-55.026-154.618-2.392-5.607-4.9-11.383-9.288-15.616s-11.214-6.574-16.744-4.012c-8.075,3.732-9,14.658-8.415,23.53,2.273,34.065,27.186,135.159,19.306,135.125-8.8-.187-35.474-121.46-61.074-172.219-3.359-6.625-17.33-20.909-29.451-16.711-17.084,5.929-10.315,36.483-8.245,46.687,9.992,49.266,43.727,159.851,36.33,162.15-7.49,2.333-40.436-93.68-57.5-133.369-2.969-6.939-6.1-14.089-11.485-19.4-5.4-5.3-13.7-8.4-20.706-5.539-6.523,2.663-10.332,9.814-11.027,16.821-.713,7.015,1.137,14.013,2.969,20.824,10.934,40.852,48.554,144.549,38.264,145.457-9.874.848-32.31-55.153-50.038-82.169-5.1-7.778-18.7-18.4-26.525-13.394-6.116,3.9-7.948,16.066-4.793,26.915,6.472,22.283,19.806,47.06,28.891,68.411,32.98,77.47,65.281,144.032,127.7,200.525Z" transform="translate(-81.817 -117.866)" fill="#ffc0b1"/><g transform="translate(107.737 236.613)" opacity="0.6" style="mix-blend-mode:multiply;isolation:isolate"><path d="M154.355,146.677s-20.4,26.915-30.6,64.992c-7.507,28.051-2.036,86.368-2.036,86.368s-17.83-55.823-14.284-85.689C112.444,170.19,154.355,146.677,154.355,146.677Z" transform="translate(-1.392 -138.907)" fill="#ffb1a7"/><path d="M241.366,145.761s-64.187,17.678-86.631,28.56S94.518,208.87,94.518,208.87s74.128-24.15,89.905-32.734C205.307,164.779,241.366,145.761,241.366,145.761Z" transform="translate(-94.518 -145.761)" fill="#ffb1a7"/><path d="M99.924,168.583s33.887,15.472,57.121,12.147c26.3-3.758,39.791-12.147,39.791-12.147s-24.565,23.445-51.522,21.656C114.717,188.194,99.924,168.583,99.924,168.583Z" transform="translate(-54.068 25.003)" fill="#ffb1a7"/></g></g></g><g transform="translate(148.313 72.572)"><path d="M94.339,177.472c-3.554,8.983-14.4,13.122-24.226,9.237s-14.9-14.327-11.35-23.31,35.3-37.238,35.3-37.238S97.894,168.481,94.339,177.472Z" transform="translate(-57.63 13.077)" fill="#7daeff"/><path d="M84.225,154.337c-4.827,5.8-13.877,6.235-20.222.959s-7.575-14.251-2.757-20.061,35.261-19.043,35.261-19.043S89.051,148.526,84.225,154.337Z" transform="translate(-52.58 -61.53)" fill="#7daeff"/><path d="M101.057,149.725c-2.333,7.176-10.586,10.934-18.432,8.389S70.308,147.68,72.64,140.5s25.685-30.757,25.685-30.757S103.381,142.548,101.057,149.725Z" transform="translate(50.055 -109.747)" fill="#7daeff"/><path d="M92.217,175.418c-1.824,7.32-9.789,11.646-17.8,9.645s-13.012-9.543-11.188-16.872S86.72,135.729,86.72,135.729,94.049,168.1,92.217,175.418Z" transform="translate(-18.516 84.662)" fill="#7daeff"/><path d="M107.843,159.59c.551,7.532-5.675,14.123-13.894,14.726S78.6,169.3,78.044,161.779,90.225,123.6,90.225,123.6,107.292,152.066,107.843,159.59Z" transform="translate(94.986 -6.1)" fill="#7daeff"/><path d="M104.9,170.751c-3.563,8.983-14.4,13.122-24.226,9.229s-14.9-14.318-11.35-23.3,35.3-37.238,35.3-37.238S108.456,161.76,104.9,170.751Z" transform="translate(21.399 -37.212)" fill="#7daeff"/><path d="M108.309,177.826c.034,9.662-8.5,17.525-19.06,17.567s-19.153-7.77-19.187-17.431,18.958-47.68,18.958-47.68S108.275,168.165,108.309,177.826Z" transform="translate(35.389 43.905)" fill="#7daeff"/><g transform="translate(238.515)"><path d="M106.671,177.472c3.563,8.983,14.4,13.122,24.226,9.237s14.9-14.327,11.349-23.31-35.3-37.238-35.3-37.238S103.117,168.481,106.671,177.472Z" transform="translate(59.483 13.077)" fill="#7daeff"/><path d="M116.761,154.337c4.826,5.8,13.877,6.235,20.222.959s7.583-14.251,2.757-20.061-35.253-19.043-35.253-19.043S111.943,148.526,116.761,154.337Z" transform="translate(54.457 -61.53)" fill="#7daeff"/><path d="M92.393,149.725c2.324,7.176,10.578,10.934,18.424,8.389S123.134,147.68,120.8,140.5s-25.685-30.757-25.685-30.757S90.061,142.548,92.393,149.725Z" transform="translate(-40.633 -109.747)" fill="#7daeff"/><path d="M85.783,159.59c-.551,7.532,5.675,14.123,13.9,14.726s15.345-5.013,15.9-12.537S103.4,123.6,103.4,123.6,86.334,152.066,85.783,159.59Z" transform="translate(-85.749 -6.1)" fill="#7daeff"/><path d="M96.11,170.751c3.554,8.983,14.4,13.122,24.226,9.229s14.9-14.318,11.341-23.3-35.3-37.238-35.3-37.238S92.556,161.76,96.11,170.751Z" transform="translate(-19.539 -37.212)" fill="#7daeff"/><path d="M92.724,177.826c-.034,9.662,8.5,17.525,19.069,17.567s19.153-7.77,19.187-17.431-18.958-47.68-18.958-47.68S92.758,168.165,92.724,177.826Z" transform="translate(-33.559 43.905)" fill="#7daeff"/><path d="M133.207,160.2c3.842,6.5,1.2,15.167-5.9,19.374s-15.964,2.341-19.806-4.156-6.082-39.613-6.082-39.613S129.365,153.712,133.207,160.2Z" transform="translate(31.471 85.238)" fill="#7daeff"/></g><path d="M79.771,174.974c-.484,13.394,10.993,24.667,25.625,25.193s26.889-9.908,27.364-23.3-24.141-66.9-24.141-66.9S80.246,161.589,79.771,174.974Z" transform="translate(107.925 -108.116)" fill="#7daeff"/></g></g></g></g></g></g></svg>