<svg xmlns="http://www.w3.org/2000/svg" xmlns:xlink="http://www.w3.org/1999/xlink" width="800" height="800" viewBox="0 0 800 800">
  <defs>
    <clipPath id="clip-path">
      <circle id="Elipse_35" data-name="Elipse 35" cx="368.393" cy="368.393" r="368.393" fill="none"/>
    </clipPath>
    <clipPath id="clip-_10">
      <rect width="800" height="800"/>
    </clipPath>
  </defs>
  <g id="_10" data-name="10" clip-path="url(#clip-_10)">
    <g id="Grupo_219" data-name="Grupo 219" transform="translate(31.718 31.144)">
      <g id="Grupo_218" data-name="Grupo 218">
        <g id="Grupo_217" data-name="Grupo 217">
          <g id="Grupo_216" data-name="Grupo 216">
            <g id="Grupo_215" data-name="Grupo 215" clip-path="url(#clip-path)">
              <g id="Grupo_213" data-name="Grupo 213" transform="translate(21.765 138.451)">
                <g id="Grupo_208" data-name="Grupo 208">
                  <g id="Grupo_207" data-name="Grupo 207">
                    <g id="Grupo_205" data-name="Grupo 205">
                      <path id="Trazado_246" data-name="Trazado 246" d="M562.126,952.451,423.592,848.134s27.4-109.183,21.712-125.448c-5.688-16.3-34.723-44.869-34.947-90.2-.083-16.614-7.431-45.417-14.995-70.8q-1.607-5.393-3.2-10.495c-5.3-17.046-10.237-31.3-12.3-37.188l-.025-.058a2.885,2.885,0,0,1,2.01-3.778c7.033-1.777,24.975-4.226,39.331,11.4,18.266,19.877,26.328,37.056,28.944,48.531,0,0,10.694,35.071,20.45,35.827,12.786.971,20.765-33.378,20.765-33.378,17.71-53.337,36.848-111.591,53.853-151.345,2.35-5.488,4.8-11.143,9.1-15.286s10.968-6.443,16.382-3.936c7.9,3.653,8.809,14.356,8.236,23.041-2.217,33.344-26.6,132.3-18.9,132.257,8.61-.174,34.722-118.881,59.781-168.565,3.288-6.485,16.963-20.475,28.828-16.357,16.73,5.8,10.1,35.711,8.071,45.691-9.781,48.232-42.793,156.476-35.561,158.718,7.331,2.292,39.588-91.689,56.285-130.538,2.915-6.8,5.97-13.792,11.242-19,5.289-5.181,13.409-8.212,20.268-5.422,6.385,2.615,10.113,9.615,10.8,16.473s-1.121,13.716-2.915,20.375c-10.7,39.986-47.526,141.5-37.446,142.386,9.665.822,31.626-53.993,48.97-80.43,5-7.614,18.308-18.017,25.963-13.118,5.986,3.828,7.788,15.734,4.7,26.354-6.343,21.811-19.4,46.064-28.288,66.954-32.282,75.839-63.891,140.991-125,196.288Z" transform="translate(-379.666 -371.608)" fill="#ffaf9f"/>
                    </g>
                    <g id="Grupo_206" data-name="Grupo 206" transform="translate(125.627 231.599)" opacity="0.6" style="mix-blend-mode: multiply;isolation: isolate">
                      <path id="Trazado_247" data-name="Trazado 247" d="M394.8,400.419a203.029,203.029,0,0,1,29.957,63.616c7.348,27.449,1.993,84.54,1.993,84.54s17.453-54.65,13.982-83.876C435.821,423.426,394.8,400.419,394.8,400.419Z" transform="translate(-394.796 -392.805)" fill="#ffb1a7"/>
                      <path id="Trazado_248" data-name="Trazado 248" d="M395.518,399.5s62.82,17.311,84.789,27.964,58.942,33.809,58.942,33.809-72.551-23.63-88-32.032C430.805,418.125,395.518,399.5,395.518,399.5Z" transform="translate(-389.523 -399.502)" fill="#ffb1a7"/>
                      <path id="Trazado_249" data-name="Trazado 249" d="M490.851,422.325s-33.17,15.136-55.912,11.89C409.209,430.537,396,422.325,396,422.325s24.045,22.949,50.424,21.189C476.379,441.521,490.851,422.325,490.851,422.325Z" transform="translate(-386.011 -232.829)" fill="#ffb1a7"/>
                    </g>
                  </g>
                </g>
                <g id="Grupo_212" data-name="Grupo 212" transform="translate(324.222)">
                  <g id="Grupo_211" data-name="Grupo 211">
                    <g id="Grupo_209" data-name="Grupo 209">
                      <path id="Trazado_250" data-name="Trazado 250" d="M612.6,936.07l143.009-87.936S728.2,738.951,733.894,722.686c5.688-16.3,34.714-44.869,34.939-90.2.091-16.614,7.439-45.417,15-70.8,1.063-3.6,2.142-7.1,3.188-10.495,5.305-17.046,10.237-31.3,12.313-37.188l.025-.058a2.89,2.89,0,0,0-2.009-3.778c-7.041-1.777-24.983-4.226-39.339,11.4-18.258,19.877-26.328,37.056-28.935,48.531,0,0-10.694,35.071-20.45,35.827-12.795.971-20.765-33.378-20.765-33.378-17.71-53.337-36.848-111.591-53.853-151.345-2.35-5.488-4.8-11.143-9.1-15.286s-10.968-6.443-16.39-3.936c-7.9,3.653-8.809,14.356-8.237,23.041,2.225,33.344,26.611,132.3,18.9,132.257-8.6-.174-34.714-118.881-59.772-168.565-3.288-6.485-16.963-20.475-28.828-16.357-16.73,5.8-10.1,35.711-8.07,45.691,9.772,48.232,42.793,156.476,35.553,158.718-7.323,2.292-39.58-91.689-56.277-130.538-2.915-6.8-5.97-13.792-11.242-19-5.289-5.181-13.409-8.212-20.276-5.422-6.376,2.615-10.113,9.615-10.794,16.473-.7,6.866,1.121,13.716,2.906,20.375,10.7,39.986,47.534,141.5,37.454,142.386-9.664.822-31.625-53.993-48.978-80.43-4.99-7.614-18.308-18.017-25.963-13.118-5.986,3.828-7.78,15.734-4.691,26.354,6.335,21.811,19.4,46.064,28.279,66.954,32.281,75.839,63.9,140.991,125,196.288Z" transform="translate(-418.715 -371.608)" fill="#ffc0b1"/>
                    </g>
                    <g id="Grupo_210" data-name="Grupo 210" transform="translate(105.465 231.599)" opacity="0.6" style="mix-blend-mode: multiply;isolation: isolate">
                      <path id="Trazado_251" data-name="Trazado 251" d="M490.253,400.419A202.815,202.815,0,0,0,460.3,464.036c-7.356,27.449-2,84.54-2,84.54s-17.453-54.65-13.974-83.876C449.229,423.426,490.253,400.419,490.253,400.419Z" transform="translate(-340.527 -392.805)" fill="#ffb1a7"/>
                      <path id="Trazado_252" data-name="Trazado 252" d="M575.148,399.5s-62.828,17.311-84.789,27.964-58.942,33.809-58.942,33.809,72.551-23.63,88-32.032C539.853,418.125,575.148,399.5,575.148,399.5Z" transform="translate(-431.417 -399.502)" fill="#ffb1a7"/>
                      <path id="Trazado_253" data-name="Trazado 253" d="M436.822,422.325s33.178,15.136,55.92,11.89c25.731-3.678,38.941-11.89,38.941-11.89s-24.045,22.949-50.423,21.189C451.3,441.521,436.822,422.325,436.822,422.325Z" transform="translate(-391.945 -232.829)" fill="#ffb1a7"/>
                    </g>
                  </g>
                </g>
              </g>
              <g id="Grupo_214" data-name="Grupo 214" transform="translate(92.344 32.345)">
                <path id="Trazado_254" data-name="Trazado 254" d="M506.834,410.392c-3.047-.565-11.948-2.7-21.189-4.749a20.407,20.407,0,0,1-15.659-16.2c-2.259-12.072-5.056-19.7-6.692-29.433-.266-1.586-2.076-1.569-2.325.016-.938,5.9-5.015,15.02-8.079,29.093a20.407,20.407,0,0,1-16.373,15.718c-8.1,1.445-15.7,2.964-19,3.761a1.634,1.634,0,0,0,.05,3.23c5.289,1.17,11.94,2.557,18.507,3.852a20.437,20.437,0,0,1,16.1,16.133c2.4,12.272,5.655,18.915,7.066,25.349.606,2.757,3.745,2.69,4.268-.091,1.992-10.47,4.35-15.21,6.276-24.867a20.428,20.428,0,0,1,16.233-16.074c7.78-1.469,15.65-3.022,20.815-3.977A.884.884,0,0,0,506.834,410.392Z" transform="translate(-183.76 -358.829)" fill="#fff"/>
                <path id="Trazado_255" data-name="Trazado 255" d="M507.577,407.641c-2.466-.457-9.656-2.175-17.121-3.836A16.512,16.512,0,0,1,477.8,390.72c-1.81-9.748-4.076-15.908-5.4-23.771-.216-1.278-1.677-1.27-1.876.017-.756,4.749-4.052,12.131-6.526,23.5a16.488,16.488,0,0,1-13.227,12.687c-6.534,1.171-12.678,2.4-15.344,3.047a1.314,1.314,0,0,0,.042,2.6c4.276.947,9.639,2.076,14.945,3.122a16.48,16.48,0,0,1,13,13.019c1.935,9.922,4.566,15.277,5.712,20.483.49,2.225,3.022,2.175,3.446-.075,1.611-8.452,3.521-12.289,5.073-20.085a16.491,16.491,0,0,1,13.11-12.986c6.277-1.187,12.637-2.441,16.813-3.213A.714.714,0,0,0,507.577,407.641Z" transform="translate(-51.01 -306.494)" fill="#fff"/>
                <path id="Trazado_256" data-name="Trazado 256" d="M461.406,417.324c-2.466-.457-9.647-2.176-17.112-3.836A16.491,16.491,0,0,1,431.64,400.4c-1.818-9.748-4.085-15.909-5.4-23.771a.943.943,0,1,0-1.885.017c-.755,4.758-4.043,12.13-6.526,23.5a16.476,16.476,0,0,1-13.218,12.7c-6.543,1.163-12.687,2.391-15.344,3.039a1.319,1.319,0,0,0,.033,2.607c4.276.947,9.648,2.067,14.945,3.114a16.5,16.5,0,0,1,13.011,13.027c1.935,9.913,4.567,15.277,5.7,20.474.49,2.225,3.022,2.176,3.454-.075,1.6-8.452,3.512-12.288,5.065-20.084a16.49,16.49,0,0,1,13.11-12.986c6.277-1.187,12.645-2.441,16.813-3.214A.713.713,0,0,0,461.406,417.324Z" transform="translate(-388.166 -235.78)" fill="#fff"/>
                <path id="Trazado_257" data-name="Trazado 257" d="M452.34,394.932c-1.677-.307-6.576-1.486-11.657-2.607a11.262,11.262,0,0,1-8.618-8.917c-1.237-6.642-2.781-10.844-3.678-16.19-.149-.88-1.146-.872-1.278,0-.515,3.246-2.757,8.27-4.451,16.008a11.223,11.223,0,0,1-9,8.652c-4.459.789-8.643,1.627-10.453,2.067a.9.9,0,0,0,.025,1.777c2.906.648,6.567,1.412,10.179,2.126a11.221,11.221,0,0,1,8.859,8.867c1.32,6.759,3.114,10.412,3.885,13.957a1.176,1.176,0,0,0,2.35-.058c1.1-5.754,2.4-8.37,3.454-13.683a11.248,11.248,0,0,1,8.934-8.843c4.276-.805,8.61-1.66,11.45-2.184A.488.488,0,0,0,452.34,394.932Z" transform="translate(-283.85 -302.369)" fill="#fff"/>
                <path id="Trazado_258" data-name="Trazado 258" d="M456.493,414.643c-1.677-.307-6.576-1.478-11.657-2.615a11.242,11.242,0,0,1-8.618-8.909c-1.237-6.642-2.781-10.844-3.678-16.19-.149-.88-1.146-.872-1.279.008-.515,3.238-2.756,8.261-4.45,16a11.224,11.224,0,0,1-9.009,8.652c-4.45.788-8.635,1.627-10.445,2.067a.9.9,0,0,0,.025,1.777c2.906.647,6.567,1.412,10.179,2.125a11.233,11.233,0,0,1,8.859,8.867c1.32,6.759,3.114,10.412,3.886,13.957a1.176,1.176,0,0,0,2.35-.058c1.1-5.755,2.4-8.37,3.454-13.675a11.246,11.246,0,0,1,8.934-8.851c4.276-.805,8.61-1.661,11.45-2.184A.488.488,0,0,0,456.493,414.643Z" transform="translate(-253.546 -158.414)" fill="#fff"/>
                <path id="Trazado_259" data-name="Trazado 259" d="M475.663,410.8c-1.677-.307-6.576-1.478-11.658-2.607a11.24,11.24,0,0,1-8.618-8.917c-1.237-6.642-2.781-10.835-3.678-16.191-.15-.872-1.146-.872-1.278.008-.515,3.238-2.765,8.261-4.451,16a11.232,11.232,0,0,1-9.008,8.652c-4.451.8-8.635,1.636-10.453,2.076a.894.894,0,0,0,.025,1.769c2.914.648,6.576,1.411,10.188,2.126a11.253,11.253,0,0,1,8.859,8.875c1.321,6.75,3.114,10.4,3.886,13.949a1.176,1.176,0,0,0,2.35-.05c1.1-5.762,2.4-8.369,3.454-13.683a11.225,11.225,0,0,1,8.934-8.842c4.276-.814,8.61-1.669,11.45-2.192A.489.489,0,0,0,475.663,410.8Z" transform="translate(-113.566 -186.484)" fill="#fff"/>
                <path id="Trazado_260" data-name="Trazado 260" d="M498.137,413.048c-1.686-.316-6.576-1.486-11.666-2.615a11.24,11.24,0,0,1-8.619-8.917c-1.237-6.634-2.773-10.835-3.678-16.191-.141-.872-1.138-.864-1.279.008-.515,3.238-2.756,8.261-4.442,16.008a11.224,11.224,0,0,1-9.009,8.643c-4.45.8-8.644,1.635-10.453,2.076a.9.9,0,0,0,.025,1.777c2.915.64,6.568,1.4,10.179,2.117a11.243,11.243,0,0,1,8.859,8.876c1.32,6.759,3.114,10.4,3.894,13.949a1.176,1.176,0,0,0,2.35-.05c1.1-5.762,2.391-8.37,3.446-13.683a11.248,11.248,0,0,1,8.934-8.843c4.276-.813,8.61-1.669,11.458-2.192A.484.484,0,0,0,498.137,413.048Z" transform="translate(50.559 -170.079)" fill="#fff"/>
              </g>
            </g>
          </g>
        </g>
      </g>
    </g>
  </g>
</svg>
