<svg xmlns="http://www.w3.org/2000/svg" xmlns:xlink="http://www.w3.org/1999/xlink" width="800" height="800" viewBox="0 0 800 800">
  <defs>
    <clipPath id="clip-path">
      <circle id="Elipse_2" data-name="Elipse 2" cx="341.662" cy="341.662" r="341.662" transform="translate(83.567 766.891) rotate(-90)" fill="none"/>
    </clipPath>
    <clipPath id="clip-path-2">
      <circle id="Elipse_3" data-name="Elipse 3" cx="341.662" cy="341.662" r="341.662" transform="translate(0 654.675) rotate(-73.351)" fill="none"/>
    </clipPath>
    <clipPath id="clip-_2">
      <rect width="800" height="800"/>
    </clipPath>
  </defs>
  <g id="_2" data-name="2" clip-path="url(#clip-_2)">
    <g id="Grupo_13" data-name="Grupo 13" transform="translate(-25.181 -25.625)">
      <g id="Grupo_11" data-name="Grupo 11" transform="translate(0 0)">
        <g id="Grupo_5" data-name="Grupo 5" transform="translate(0 -1.002)">
          <g id="Grupo_4" data-name="Grupo 4" clip-path="url(#clip-path)">
            <g id="Grupo_3" data-name="Grupo 3" transform="translate(324.896 17.888)">
              <g id="Grupo_2" data-name="Grupo 2" transform="translate(0 50.461)">
                <path id="Trazado_1" data-name="Trazado 1" d="M466.539,99.215l-1.956,166.052a79.143,79.143,0,0,1-5.028,26.851L451.723,313,285.348,345.027a42.286,42.286,0,0,1-22.177-2.533l-70.5-35.337L183.7,104.151" transform="translate(-183.703 -99.215)" fill="#a5b7ff"/>
                <path id="Trazado_2" data-name="Trazado 2" d="M193.592,138.5l18.789,69.873a7.64,7.64,0,0,0,9.225,5.421l54.788-13.7a7.635,7.635,0,0,0,5.382-9.856l-15.385-45.378" transform="translate(-117.443 164.044)" fill="#d4e0fa"/>
                <path id="Trazado_3" data-name="Trazado 3" d="M288.872,136.274l9.117,17.834c7.023,12.914.916,23.625-13.283,27.413-.986.262-47.665,13.106-47.665,13.106-20.706,2.888-39.788-17.857-39.788-38.764" transform="translate(-92.913 149.095)" fill="#a5b7ff"/>
                <path id="Trazado_4" data-name="Trazado 4" d="M288.872,136.274l9.117,17.834c7.023,12.914.916,23.625-13.283,27.413-.986.262-47.665,13.106-47.665,13.106-20.706,2.888-39.788-17.857-39.788-38.764" transform="translate(-92.913 149.095)" fill="#8e9edc" opacity="0.4" style="mix-blend-mode: multiply;isolation: isolate"/>
              </g>
              <path id="Trazado_5" data-name="Trazado 5" d="M443.713,131.755V176.04a22.343,22.343,0,0,1-18.173,21.946L288.8,227.694a56.92,56.92,0,0,1-34.583-4.3l-51.985-28.584a29.988,29.988,0,0,1-17.357-27.206V125.933l70.936,33.558a42.747,42.747,0,0,0,23.294,2.7Z" transform="translate(-175.87 130.267)" fill="#a5b7ff"/>
              <path id="Trazado_6" data-name="Trazado 6" d="M196.139,92.662v249.67a24.3,24.3,0,0,0,28.484,23.94l121.913-20.013a23.6,23.6,0,0,0,18.158-14.7l3.042-7.785a45.669,45.669,0,0,0,3.111-17.742l-4.92-200Z" transform="translate(-100.377 -92.662)" fill="#8e9edc" opacity="0.4" style="mix-blend-mode: multiply;isolation: isolate"/>
            </g>
          </g>
        </g>
        <g id="Grupo_10" data-name="Grupo 10">
          <g id="Grupo_9" data-name="Grupo 9" clip-path="url(#clip-path-2)">
            <g id="Grupo_8" data-name="Grupo 8" transform="translate(175.33 423.063)">
              <g id="Grupo_6" data-name="Grupo 6">
                <path id="Trazado_7" data-name="Trazado 7" d="M728.282,324.818,647.643,442.973S532.406,410.454,513.3,413.358c-19.128,2.9-47.373,33.135-97.51,28.83-18.365-1.579-60.695-8.655-90.233-5.175-4.181.493-8.27,1-12.228,1.494-19.882,2.518-36.608,5.021-43.523,6.083l-.062.008c-1.894.3-3.65-.608-3.781-1.964-.57-5.752.254-20.229,20.352-30.07,25.558-12.505,46.133-17.2,59.324-18.135,0,0,40.866-5.005,43.623-12.667,3.6-10.041-32.8-19.775-32.8-19.775-15.609-5.437-44.123-10.5-64.691-13.714a118.436,118.436,0,0,1-45.463-17.357c-15.023-9.6-34.583-21.553-46.464-26.651-5.606-2.41-11.366-4.913-15.1-8.732s-4.951-9.348-1.109-13.391c5.59-5.906,17.6-5.56,27.074-4.243,8.34,1.163,27.259,9.587,42.075,16.656a117.618,117.618,0,0,0,44.809,11.4c23.355,1.193,54.989,2.372,55.543.069.554-2.518-37.362-8.825-61.233-12.536a117.4,117.4,0,0,1-36.361-11.966c-22.616-11.8-61.033-31.772-76.9-39.649-6.514-3.25-19.274-15.493-12.39-24.5,9.7-12.683,41.451-4.451,52.086-1.848,12.482,3.049,38.363,15.848,55.789,24.9a117.561,117.561,0,0,0,38.656,12.205c27.506,3.658,72.268,9.217,73.932,6.876,1.548-2.187-29.269-9.626-51.423-14.646a118.212,118.212,0,0,1-40.2-17.5c-14.084-9.541-32.588-21.6-41.544-25.465-6.93-2.988-14.061-6.106-18.773-10.8-4.69-4.713-6.43-11.451-1.994-16.618,4.143-4.8,12.621-7.061,20.329-6.923,7.724.131,14.931,2.256,21.946,4.335,9.595,2.849,29.955,14.361,45.209,23.432a117.766,117.766,0,0,0,43.284,15.355c24.911,3.619,60.294,8.186,61.457,5.075,1.132-3.034-17.773-8.186-32.172-11.635A118.666,118.666,0,0,1,361.1,191.355c-12.867-7.446-29.67-17.218-35.1-20.668-7.431-4.713-16.294-16.3-9.371-21.885,5.406-4.366,18.912-4.6,30.039-1.1,6.291,1.979,21.022,9.264,33,15.409a119.111,119.111,0,0,0,37.416,11.928c15.108,2.179,34.39,5.321,40.581,7.97,77.428,33.127,120.419,56.675,169.478,110.585Z" transform="translate(-164.28 -145.279)" fill="#ffc0b1"/>
              </g>
              <g id="Grupo_7" data-name="Grupo 7" transform="translate(230.012 96.12)" opacity="0.6" style="mix-blend-mode: multiply;isolation: isolate">
                <path id="Trazado_8" data-name="Trazado 8" d="M195.088,198.617a307.86,307.86,0,0,1,76.2-17.441c31.787-3.1,93.814,6.8,93.814,6.8s-56.944-19.251-89.925-19.4C228.608,168.378,195.088,198.617,195.088,198.617Z" transform="translate(-187.865 -85.298)" fill="#ffb1a7"/>
                <path id="Trazado_9" data-name="Trazado 9" d="M194.15,265.575s31.5-48.089,47.6-64.445,48.982-43.369,48.982-43.369-40.412,55.166-52.748,66.578C221.679,239.44,194.15,265.575,194.15,265.575Z" transform="translate(-194.15 -157.762)" fill="#ffb1a7"/>
                <path id="Trazado_10" data-name="Trazado 10" d="M240.147,164.028s10.188,27.791,2.118,45.494c-9.133,20.029-20.822,29.685-20.822,29.685s30.108-16.787,33.366-37.863C258.5,177.4,240.147,164.028,240.147,164.028Z" transform="translate(-11.276 -115.777)" fill="#ffb1a7"/>
              </g>
            </g>
          </g>
        </g>
      </g>
      <g id="Grupo_12" data-name="Grupo 12" transform="translate(423.785 420.357)">
        <path id="Trazado_11" data-name="Trazado 11" d="M230.026,230.584a12.253,12.253,0,0,1-6.507-14.276,18.526,18.526,0,1,1-4.074-34.4c-4.274-7.423-1.917-17.765,4.79-23.1s16.833-5.506,24.079-.939c3.765,2.372,6.892,6.076,7.685,10.457a15.911,15.911,0,0,1-2.072,10.472c4.1-2.888,9.78-1.787,14.4.169,5.39,2.287,10.519,5.745,13.46,10.8s3.257,11.928-.354,16.54-11.435,5.644-15.378,1.309a18.27,18.27,0,0,1,6.73,18.966c-1.9,6.869-8.724,12.151-15.848,11.92-6.938-.231-12.174-11.42-12.174-11.42S235.124,232.848,230.026,230.584Z" transform="translate(-196.545 -80.026)" fill="#fff"/>
        <path id="Trazado_12" data-name="Trazado 12" d="M232.032,192.555c-3.542,2.718-8.994,2.256-12.336-.716a12.151,12.151,0,0,1-3.25-12.267,9.849,9.849,0,1,1-7.169-15.185,10.322,10.322,0,1,1,15.786-10.319,13.109,13.109,0,0,1,12.067-9.14,12.286,12.286,0,0,1,11.774,9.279,11.581,11.581,0,0,1-7.138,13c4.235-1.8,9.579,1.579,10.3,6.122s-2.726,9.171-7.162,10.38c-4.312,1.17-8.794-.578-11.959-3.535C235.7,184.069,236.313,189.267,232.032,192.555Z" transform="translate(-184.189 -144.928)" fill="#fff"/>
        <path id="Trazado_13" data-name="Trazado 13" d="M211.259,199.141c-2.5-5.883-.608-13.476,4.674-17.072-3.149.477-6.284-1.633-7.8-4.435s-1.679-6.137-1.386-9.31c.531-5.683,2.58-11.412,6.7-15.362s10.526-5.744,15.763-3.488c6.16,2.657,8.994,9.641,11.212,15.963,2.5-6.568,10.673-9.9,17.472-8.085s11.928,7.847,14.007,14.561c1.694,5.467,1.255,12.205-3.15,15.863-4.967,4.127-11.743,2.333-17.311,1.024C249.5,205.879,219.483,218.508,211.259,199.141Z" transform="translate(-128.996 -121.082)" fill="#fff"/>
      </g>
    </g>
  </g>
</svg>
