<svg xmlns="http://www.w3.org/2000/svg" xmlns:xlink="http://www.w3.org/1999/xlink" width="800" height="800" viewBox="0 0 800 800"><defs><clipPath id="a"><circle cx="380.474" cy="380.474" r="380.474" transform="translate(0 760.947) rotate(-90)" fill="none"/></clipPath><clipPath id="c"><rect width="800" height="800"/></clipPath></defs><g id="b" clip-path="url(#c)"><rect width="800" height="800" fill="#fff"/><g transform="translate(-42.542 -41.991)"><g transform="translate(61.666 61.666)"><g clip-path="url(#a)"><g transform="translate(18.034 97.126)"><path d="M414.193,767.033,265.869,625.526s225.8-247.29,227.721-265c1.93-17.725-12.46-57.248,7.452-99.626,7.289-15.53,13.223-45.646,17.442-72.674.6-3.824,1.149-7.572,1.681-11.208,2.624-18.248,4.348-33.735,5.025-40.14l.009-.069a2.982,2.982,0,0,1,3.55-2.633c7.34,1.475,25.168,7.152,31.616,28.092,8.207,26.643,8.1,46.246,5.445,58.105,0,0-5.591,37.448,3.164,42.49,11.5,6.577,34.181-21.909,34.181-21.909,40.192-41.881,83.9-87.707,117.4-117.231,4.63-4.082,9.424-8.258,15.272-10.221s13.086-1.132,17.022,3.61c5.754,6.92,1.853,17.3-2.538,25.142-16.876,30.107-83.539,111.563-76.336,114.95,8.1,3.653,85.151-95.459,130.574-130.668,5.943-4.588,24.9-11.551,34.138-2.453,13.026,12.837-6.431,37.782-12.751,46.194C795.41,210.918,716.57,297.2,722.324,302.51c5.823,5.385,77.614-67.941,110.431-96.753,5.728-5.042,11.688-10.213,18.917-12.717s16.147-1.715,21.309,3.936c4.793,5.274,5.162,13.454,2.753,20.152-2.393,6.714-7.126,12.3-11.756,17.708-27.732,32.543-107.13,110.859-98.126,116.159,8.644,5.059,53.458-36.307,81.37-53.26,8.043-4.888,25.074-8.678,30.039-.712,3.885,6.225.275,18.128-7.323,26.66-15.59,17.519-38.528,34.343-56.1,49.882-63.765,56.39-122.161,103.107-203.694,127.555Z" transform="translate(-265.869 -112.518)" fill="#ffc0b1"/><g transform="translate(261.894 165.887)" opacity="0.6" style="mix-blend-mode:multiply;isolation:isolate"><path d="M336.517,132.381s6.928,33.426-.309,72.623c-5.325,28.864-35.664,79.723-35.664,79.723s40.535-43.21,50.268-72.014C364.558,172.05,336.517,132.381,336.517,132.381Z" transform="translate(-265.094 -127.939)" fill="#ffb1a7"/><path d="M305.784,131.863s50.911,44.033,66.663,63.713,39.96,57.7,39.96,57.7-57.17-54.247-67.846-68.944C330.438,164.894,305.784,131.863,305.784,131.863Z" transform="translate(-225.401 -131.863)" fill="#ffb1a7"/><path d="M384.871,194.781s-37.662-.6-57.428-13.729c-22.364-14.852-31.033-28.375-31.033-28.375s12.237,32.08,37.611,42.147C362.842,206.263,384.871,194.781,384.871,194.781Z" transform="translate(-296.41 25.806)" fill="#ffb1a7"/></g><g transform="translate(193.156 100.366)"><path d="M332.525,131.3c-5.763,1.278-7.572,8.155-7.058,15.178.738,10.093,15.8,15.109,21.824,5.257C352.968,142.444,343.193,128.938,332.525,131.3Z" transform="translate(-8.188 -72.696)" fill="#fff"/><path d="M311.2,138.325c-3.379-2.8-8.489-2.221-12.1,2.778-4.382,6.1-1.647,16.138,6.877,15.169C314,155.364,317.447,143.487,311.2,138.325Z" transform="translate(-222.89 -30.048)" fill="#fff"/><path d="M333.423,125.892c-3.378-2.8-8.5-2.221-12.1,2.787-4.391,6.088-1.647,16.13,6.868,15.161C336.211,142.931,339.666,131.054,333.423,125.892Z" transform="translate(-54.612 -124.222)" fill="#fff"/><path d="M301.948,143.337c-5.231,1.578-8.164,7.28-5.454,14.466,3.293,8.755,15.59,12.828,20.46,3.336C321.543,152.2,311.6,140.421,301.948,143.337Z" transform="translate(-234.823 17.144)" fill="#fff"/><path d="M510.41,290.142c24.525-1.355,31.677-35.638,26.72-49.5-8.473-23.727-28.29-27.715-54.1-26.154.223-.189.429-.4.652-.6,12.837-9,20.194-25.88,16.216-41.041-4.065-15.487-20.709-27.08-36.41-23.95-8.275,1.655-14.749,6.491-19.766,13.008a28.317,28.317,0,0,0-6.32,5.711c.995-21.532-18.136-42.67-39.66-41.495-35.312,1.938-27.9,36.041-28.821,58.774-6.526-12.434-20.966-20.709-34.841-18.54s-25.477,15.667-24.148,29.653c1.535,16.036,16.859,26.026,32.688,31.419-14.423-2.066-30.279,7.195-35.166,21.275a25.617,25.617,0,0,0-4.125,16c1.055,11.062,8.729,19.191,18.539,24.971a35.263,35.263,0,0,0,6.517,3.782,37.268,37.268,0,0,0,4.253,1.389c1.123.438,2.238.9,3.37,1.278-14.629-2.092-30.776,7.469-35.4,21.893-5.471,17.047,4.733,37.07,21.172,44.136s36.925,1.587,48.938-11.671c-2.392,12.434-.549,26.068,6.946,36.273s21.172,16.173,33.374,12.768c11.38-3.173,19.586-13.609,23.282-24.834s3.635-23.29,3.533-35.107c3.3,9.921,34.935,41.624,64.631,20.838C535.329,337.434,530.159,303,510.41,290.142Z" transform="translate(-207.116 -110.161)" fill="#fff"/><path d="M341.55,154.213c11.114-.274,21.43,9.724,21.507,20.829,2.907-14.518,23-22.158,34.815-13.24s9.973,30.339-3.19,37.113c10.342-5.445,24.585-.789,30.167,9.484s2.023,24.379-7.46,31.214-23.59,5.951-32.491-1.621c2.838,13.309,4.965,28.607-3.43,39.308-8.043,10.239-25.031,11.731-34.729,3.044s-10.093-25.734-.8-34.858a46.968,46.968,0,0,1-24.285,5.385c-4.3-.223-8.772-1.123-12.125-3.833-5.437-4.4-6.483-12.82-3.473-19.131s9.278-10.59,15.949-12.666c-8.747-.754-17.939-1.664-25.142-6.689s-11.268-15.667-6.243-22.861c3.559-5.077,10.5-6.852,16.636-5.925,5.934.892,11.448,3.859,16.6,6.774C312.721,174.6,327.367,154.556,341.55,154.213Z" transform="translate(-288.394 102.919)" fill="#fff"/></g><g transform="translate(241.589 129.673)"><path d="M706.857,616.158,546.322,676.57s-46.529-110.293-61.767-120.481c-15.255-10.213-58.2-15.924-87.381-54.307-10.693-14.055-35.355-33.837-58.019-50.568-3.2-2.375-6.363-4.665-9.424-6.877-15.4-11.1-28.718-20.057-34.24-23.728l-.052-.034a3.08,3.08,0,0,1-.72-4.5c4.853-6,18.531-19.56,40.723-15.461,28.229,5.214,46.066,14.655,55.618,22.733,0,0,31.522,22.964,40.295,17.365,11.49-7.349-3.7-41.641-3.7-41.641C408.6,342.422,387.613,280.681,376.637,236.03c-1.518-6.174-3.044-12.545-2.041-18.814S379.8,204.731,386,203.4c9.055-1.955,16.67,6.56,21.729,14.3,19.44,29.756,61.99,129.442,68.524,124.477,7.2-5.659-46.52-123.225-57-181.467-1.355-7.615,1.321-28.246,14.037-32.337,17.922-5.771,31.411,23.89,36.076,33.666,22.535,47.232,63.7,160.338,71.285,157.611,7.683-2.744-25-103.227-35.655-146.918-1.869-7.64-3.747-15.538-2.59-23.333,1.175-7.786,6.14-15.555,13.755-17.57,7.092-1.852,14.74,1.706,19.705,7.092,4.982,5.394,7.821,12.374,10.565,19.183,16.472,40.818,50.1,150.631,59.22,144.937,8.747-5.479-7.649-66.106-9.81-99.66-.635-9.664,4.03-27.02,13.669-27.749,7.537-.583,16.679,8.386,20.846,19.388,8.558,22.587,12.974,51.545,18.78,74.981C670.2,355.088,685,430.669,668.44,516.738Z" transform="translate(-294.042 -127.64)" fill="#ffc0b1"/><g transform="translate(147.494 183.038)" opacity="0.5" style="mix-blend-mode:multiply;isolation:isolate"><path d="M311.257,165.671c-.506-.995,12.588,2.813,19.7.926.343-.086.626-.154,1.064-.266,6.517-1.732,15.538-11.053,15.59-9.973.128,3.156-.763,7.272-2.41,9.6a19.614,19.614,0,0,1-11.525,8.206l-1.029.275a21.282,21.282,0,0,1-14.74-1.526A17.232,17.232,0,0,1,311.257,165.671Z" transform="translate(-311.242 -93.795)" fill="#ffb1a7"/><path d="M317.72,166.046c-.592-.943,12.794,1.672,19.7-.849.335-.12.617-.206,1.038-.36,6.337-2.307,14.483-12.408,14.629-11.336.412,3.13-.1,7.306-1.535,9.767a19.6,19.6,0,0,1-10.745,9.218l-.995.36a21.265,21.265,0,0,1-14.818-.189A17.1,17.1,0,0,1,317.72,166.046Z" transform="translate(-262.319 -115.377)" fill="#ffb1a7"/><path d="M324.653,163.231c-.592-.943,12.794,1.672,19.7-.849.334-.112.617-.206,1.037-.36,6.337-2.307,14.484-12.408,14.629-11.336.412,3.13-.1,7.306-1.535,9.767a19.6,19.6,0,0,1-10.745,9.218l-.995.36a21.265,21.265,0,0,1-14.818-.188A17.108,17.108,0,0,1,324.653,163.231Z" transform="translate(-209.8 -136.701)" fill="#ffb1a7"/><path d="M331.224,159.677c-.506-.8,10.83,1.406,16.679-.72.283-.1.515-.18.875-.309,5.368-1.955,12.263-10.5,12.382-9.6a14.614,14.614,0,0,1-1.295,8.267,16.6,16.6,0,0,1-9.1,7.812l-.84.3a18.026,18.026,0,0,1-12.545-.154A14.49,14.49,0,0,1,331.224,159.677Z" transform="translate(-159.999 -148.985)" fill="#ffb1a7"/></g><g transform="translate(131.302 9.32)"><path d="M343.32,148.263a3.272,3.272,0,0,1-2.05,4.27l-.094.034-25.314,8.387h0a3.272,3.272,0,0,1-4.176-2.187c-2.693-9.364-5.583-25.211,7.066-29.293C330.68,125.633,339.058,137.3,343.32,148.263Z" transform="translate(-309.354 -128.727)" fill="#ffb1a7" opacity="0.4" style="mix-blend-mode:multiply;isolation:isolate"/><path d="M335.426,134.21,310.113,142.6c.419-4.185,4.656-8.515,10.693-10.462C326.731,130.223,332.58,131.192,335.426,134.21Z" transform="translate(-303.605 -110.369)" fill="#fff" opacity="0.5"/></g><g transform="translate(1.439 286.752)"><path d="M342.591,182.013l-.1.111L332.7,194.087c-2.8-2.075-5.617-4-8.292-5.943-13.437-9.681-25.374-17.553-30.193-20.76,13.206-12.76,33.3-3.962,47.652,7.075A5.232,5.232,0,0,1,342.591,182.013Z" transform="translate(-294.21 -161.08)" fill="#ffb1a7" opacity="0.4" style="mix-blend-mode:multiply;isolation:isolate"/><path d="M315.975,163.932l-9.8,11.98c-2.8-2.075-5.788-4.167-8.464-6.1C303.687,164.618,310.615,162.466,315.975,163.932Z" transform="translate(-267.697 -142.888)" fill="#fff" opacity="0.5"/></g><g transform="translate(213.443 9.463)"><path d="M352.9,148.274a3.268,3.268,0,0,1-2.041,4.27l-.1.034-25.305,8.387h0a3.278,3.278,0,0,1-4.185-2.187c-2.692-9.364-5.583-25.211,7.066-29.284C340.268,125.644,348.646,137.315,352.9,148.274Z" transform="translate(-318.933 -128.743)" fill="#ffb1a7" opacity="0.4" style="mix-blend-mode:multiply;isolation:isolate"/><path d="M345,134.223l-25.305,8.387c.42-4.193,4.648-8.515,10.685-10.462C336.3,130.244,342.152,131.2,345,134.223Z" transform="translate(-313.176 -110.387)" fill="#fff" opacity="0.5"/></g><g transform="translate(308.071 53.7)"><path d="M353.214,149.018a2.268,2.268,0,0,1-1.749,2.778l-.068.009L333.3,155.553h0a2.274,2.274,0,0,1-2.7-1.844c-1.1-6.663-1.818-17.8,7.212-19.594C346.337,132.425,351.165,141.129,353.214,149.018Z" transform="translate(-329.968 -133.902)" fill="#ffb1a7" opacity="0.4" style="mix-blend-mode:multiply;isolation:isolate"/><path d="M348.451,138.529l-18.094,3.747c.626-2.847,3.885-5.488,8.2-6.346C342.782,135.09,346.735,136.231,348.451,138.529Z" transform="translate(-327.023 -120.626)" fill="#fff" opacity="0.5"/></g><g transform="translate(84.967 82.574)"><path d="M330.905,153.568a2.6,2.6,0,0,1-1.784,3.327l-.077.026-20.46,5.763h0a2.607,2.607,0,0,1-3.259-1.9c-1.809-7.555-3.533-20.28,6.689-23.076C321.661,135.08,327.912,144.675,330.905,153.568Z" transform="translate(-303.951 -137.269)" fill="#ffb1a7" opacity="0.4" style="mix-blend-mode:multiply;isolation:isolate"/><path d="M324.951,142l-20.46,5.763c.48-3.319,4-6.611,8.884-7.949C318.168,138.513,322.79,139.49,324.951,142Z" transform="translate(-299.857 -122.352)" fill="#fff" opacity="0.5"/></g></g></g><g transform="translate(464.812 536.132)"><path d="M322.742,210.867c-6.371,11.362-6.629,26.377.849,37.045,6.517,9.3,17.836,14.269,29.1,15.77,19.3,2.581,39.342-4.065,54.34-16.5s28.118-25.948,29.559-49.238c.463-7.486-2.29-30.519-31.634-33.237-14.955-1.389-29.618,6.063-42.447,13.866" transform="translate(-317.971 -157.461)" fill="none" stroke="#678cff" stroke-linecap="round" stroke-linejoin="round" stroke-width="7.06"/><path d="M350.058,189.822l-27.633,2.25,3.79-28.359" transform="translate(-284.231 -163.713)" fill="none" stroke="#678cff" stroke-linecap="round" stroke-linejoin="round" stroke-width="7.06"/></g></g></g></g></g></svg>