<svg xmlns="http://www.w3.org/2000/svg" xmlns:xlink="http://www.w3.org/1999/xlink" width="800" height="800" viewBox="0 0 800 800">
  <defs>
    <clipPath id="clip-path">
      <circle id="Elipse_9" data-name="Elipse 9" cx="389.184" cy="389.184" r="389.184" transform="translate(0 778.369) rotate(-90)" fill="none"/>
    </clipPath>
    <clipPath id="clip-_4">
      <rect width="800" height="800"/>
    </clipPath>
  </defs>
  <g id="_4" data-name="4" clip-path="url(#clip-_4)">
    <g id="Grupo_62" data-name="Grupo 62" transform="translate(-55.436 -86.979)">
      <g id="Grupo_60" data-name="Grupo 60" transform="translate(65.944 65.944)">
        <g id="Grupo_59" data-name="Grupo 59">
          <g id="Grupo_58" data-name="Grupo 58">
            <g id="Grupo_57" data-name="Grupo 57">
              <g id="Grupo_56" data-name="Grupo 56" clip-path="url(#clip-path)">
                <g id="Grupo_55" data-name="Grupo 55" transform="translate(197.129 136.932)">
                  <g id="Grupo_46" data-name="Grupo 46" transform="translate(65.423)">
                    <path id="Trazado_45" data-name="Trazado 45" d="M405.916,770.659,565.3,796.833S621.843,569.126,633.9,555.679c12.061-13.464,50.462-28.35,69.882-72.97,7.123-16.35,25.981-41.393,43.594-62.97,2.491-3.061,4.956-6.026,7.342-8.894,12.026-14.385,22.543-26.192,26.911-31.042l.044-.053a3.317,3.317,0,0,0-.21-4.64c-5.623-4.973-20.833-15.622-40.454-6.781-24.964,11.236-39.551,24.49-46.778,34.612,0,0-24.551,29.7-33.709,25.972-11.99-4.9-4.649-42.445-4.649-42.445,6.57-60.742,13.929-126.984,15.386-173.991.2-6.5.377-13.2-1.755-19.253s-7.21-11.385-13.175-11.385c-8.7-.026-14.06,10.122-17.227,18.946C626.975,234.7,607.116,343.5,600.142,339.936c-7.719-4.123,18.964-133.2,17.333-193.709-.228-7.9-6.684-27.972-19.175-29.341-17.6-1.947-24.279,30.595-26.674,41.375-11.6,52.059-27.578,173.982-35.086,172.886-7.605-1.105,3.026-108.6,4.377-154.589.237-8.035.439-16.341-2.131-23.885-2.6-7.543-8.667-14.254-16.061-14.64-6.886-.351-13.227,4.851-16.753,11.3-3.544,6.456-4.807,14.043-6.008,21.437C492.7,215.127,483.017,332.147,473.518,328.4c-9.1-3.614-13.561-67.488-21.981-100.767-2.421-9.587-11.92-24.946-20.718-22.587-6.877,1.842-12.237,13.464-12.543,25.472-.649,24.665,12.885,102.433,12.078,127.116-2.912,89.609-5.14,115.371,26.744,197.937Z" transform="translate(-405.916 -116.802)" fill="#ffaf9f"/>
                    <g id="Grupo_40" data-name="Grupo 40" transform="translate(35.007 227.127)" opacity="0.5" style="mix-blend-mode: multiply;isolation: isolate">
                      <path id="Trazado_46" data-name="Trazado 46" d="M463.809,147.473c.281-1.1-11.034,5.5-17.938,5.131-.333-.018-.605-.018-1.026-.035-6.333-.342-16.438-7.745-16.271-6.649.483,3.184,2.105,7.1,4.07,9.078,3.456,3.465,7.2,5.491,12.192,5.754l.991.053a18.985,18.985,0,0,0,13.271-4.675A17.9,17.9,0,0,0,463.809,147.473Z" transform="translate(-264.854 -118.495)" fill="#ffb1a7"/>
                      <path id="Trazado_47" data-name="Trazado 47" d="M457.282,149.455c.368-1.07-11.447,4.395-18.289,3.36-.325-.053-.6-.079-1.017-.149-6.281-.956-15.727-9.315-15.649-8.219.219,3.219,1.5,7.289,3.3,9.447,3.158,3.789,6.719,6.184,11.666,6.93l.983.149a18.742,18.742,0,0,0,13.6-3.351A17.591,17.591,0,0,0,457.282,149.455Z" transform="translate(-313.385 -129.862)" fill="#ffb1a7"/>
                      <path id="Trazado_48" data-name="Trazado 48" d="M450.522,148.15c.359-1.07-11.447,4.395-18.289,3.359-.325-.053-.605-.088-1.018-.149-6.28-.956-15.727-9.324-15.657-8.219.228,3.219,1.509,7.289,3.307,9.447,3.149,3.789,6.71,6.184,11.666,6.93l.982.149a18.791,18.791,0,0,0,13.6-3.351A17.68,17.68,0,0,0,450.522,148.15Z" transform="translate(-365.99 -140.013)" fill="#ffb1a7"/>
                      <path id="Trazado_49" data-name="Trazado 49" d="M439.511,147.018c.306-.912-9.693,3.728-15.49,2.842-.273-.044-.509-.07-.86-.123-5.316-.816-13.315-7.894-13.253-6.956a15.563,15.563,0,0,0,2.8,7.991,15.241,15.241,0,0,0,9.877,5.868l.833.132a15.906,15.906,0,0,0,11.508-2.842A14.984,14.984,0,0,0,439.511,147.018Z" transform="translate(-409.907 -142.696)" fill="#ffb1a7"/>
                    </g>
                    <g id="Grupo_41" data-name="Grupo 41" transform="translate(173.853 9.637)">
                      <path id="Trazado_50" data-name="Trazado 50" d="M425.778,142.031a3.29,3.29,0,0,0,2.71,3.833l.088.009,24.911,2.991h0a3.171,3.171,0,0,0,3.421-3.088c.666-9.938.263-26.411-12.166-27.788C433.023,116.69,427.567,130.154,425.778,142.031Z" transform="translate(-425.736 -117.901)" fill="#ffb1a7" opacity="0.4" style="mix-blend-mode: multiply;isolation: isolate"/>
                      <path id="Trazado_51" data-name="Trazado 51" d="M426.06,125.79l24.911,2.991c-1.193-4.105-5.92-7.526-11.859-8.184C433.3,119.948,428.1,122.168,426.06,125.79Z" transform="translate(-423.221 -97.819)" fill="#fff" opacity="0.5"/>
                    </g>
                    <g id="Grupo_42" data-name="Grupo 42" transform="translate(332.104 259.597)">
                      <path id="Trazado_52" data-name="Trazado 52" d="M445.727,174.852l.123.088,11.324,9.877c2.167-2.675,4.386-5.21,6.473-7.719,10.49-12.552,19.955-22.981,23.762-27.218-14.622-9.938-31.4,3.149-42.471,17.253A5.676,5.676,0,0,0,445.727,174.852Z" transform="translate(-443.778 -146.398)" fill="#ffb1a7" opacity="0.4" style="mix-blend-mode: multiply;isolation: isolate"/>
                      <path id="Trazado_53" data-name="Trazado 53" d="M444.014,151.037l11.333,9.886c2.176-2.667,4.518-5.4,6.605-7.9C455.443,149.09,448.654,148.423,444.014,151.037Z" transform="translate(-441.942 -122.495)" fill="#fff" opacity="0.5"/>
                    </g>
                    <g id="Grupo_43" data-name="Grupo 43" transform="translate(98.298 27.311)">
                      <path id="Trazado_54" data-name="Trazado 54" d="M417.162,144.037a3.306,3.306,0,0,0,2.71,3.842l.1.009,24.911,2.991h0a3.177,3.177,0,0,0,3.421-3.088c.666-9.938.263-26.411-12.167-27.788C424.407,118.705,418.96,132.169,417.162,144.037Z" transform="translate(-417.123 -119.916)" fill="#ffb1a7" opacity="0.4" style="mix-blend-mode: multiply;isolation: isolate"/>
                      <path id="Trazado_55" data-name="Trazado 55" d="M417.447,127.811l24.911,2.991c-1.193-4.105-5.93-7.535-11.859-8.193C424.675,121.969,419.482,124.18,417.447,127.811Z" transform="translate(-414.601 -99.839)" fill="#fff" opacity="0.5"/>
                    </g>
                    <g id="Grupo_44" data-name="Grupo 44" transform="translate(18.295 92.947)">
                      <path id="Trazado_56" data-name="Trazado 56" d="M408.258,147.232a2.236,2.236,0,0,0,2.491,2.052l.061-.017,17.148-2.763h0a2.249,2.249,0,0,0,1.737-2.719c-1.324-6.78-4.526-17.709-13.061-16.253C408.583,128.908,407.346,138.951,408.258,147.232Z" transform="translate(-408.002 -127.399)" fill="#ffb1a7" opacity="0.4" style="mix-blend-mode: multiply;isolation: isolate"/>
                      <path id="Trazado_57" data-name="Trazado 57" d="M408.322,135.338l17.148-2.763c-1.526-2.517-5.29-3.9-9.36-3.2C412.111,130.049,409.041,132.531,408.322,135.338Z" transform="translate(-405.513 -113.47)" fill="#fff" opacity="0.5"/>
                    </g>
                    <g id="Grupo_45" data-name="Grupo 45" transform="translate(236.497 72.497)">
                      <path id="Trazado_58" data-name="Trazado 58" d="M432.9,144.983a2.612,2.612,0,0,0,2.289,2.956h.07l19.947,1.4h0a2.543,2.543,0,0,0,2.622-2.588c.2-7.947-.666-21.052-10.613-21.666C437.825,124.519,433.93,135.457,432.9,144.983Z" transform="translate(-432.878 -125.068)" fill="#ffb1a7" opacity="0.4" style="mix-blend-mode: multiply;isolation: isolate"/>
                      <path id="Trazado_59" data-name="Trazado 59" d="M433.149,131.819l19.946,1.4c-1.087-3.219-4.974-5.763-9.719-6.052C438.719,126.88,434.658,128.854,433.149,131.819Z" transform="translate(-430.772 -108.948)" fill="#fff" opacity="0.5"/>
                    </g>
                  </g>
                  <g id="Grupo_47" data-name="Grupo 47" transform="translate(48.351 13.281)">
                    <path id="Trazado_60" data-name="Trazado 60" d="M458.592,146.635c-3.456-2.859-8.693-2.272-12.377,2.851-4.482,6.237-1.684,16.5,7.026,15.517C461.452,164.073,464.978,151.925,458.592,146.635Z" transform="translate(-92.066 88.488)" fill="#fff"/>
                    <path id="Trazado_61" data-name="Trazado 61" d="M449.98,130.211c-3.456-2.859-8.693-2.272-12.385,2.851-4.483,6.236-1.676,16.5,7.035,15.517C452.831,147.64,456.366,135.5,449.98,130.211Z" transform="translate(-159.046 -39.151)" fill="#fff"/>
                    <path id="Trazado_62" data-name="Trazado 62" d="M421.581,120.768c-5.35,1.614-8.35,7.447-5.578,14.8,3.368,8.956,15.955,13.122,20.937,3.412C441.633,129.829,431.467,117.795,421.581,120.768Z" transform="translate(-318.629 -102.844)" fill="#fff"/>
                    <path id="Trazado_63" data-name="Trazado 63" d="M464.535,118.321c8.289-.2,15.982,7.263,16.043,15.552,2.167-10.833,17.166-16.543,25.981-9.886s7.447,22.639-2.377,27.7c7.719-4.061,18.35-.6,22.508,7.07s1.518,18.2-5.561,23.306-17.6,4.439-24.253-1.21c2.122,9.929,3.71,21.341-2.553,29.332-6.008,7.649-18.683,8.754-25.92,2.272s-7.535-19.2-.6-26.007a35.172,35.172,0,0,1-18.122,4.017c-3.219-.167-6.552-.842-9.052-2.868-4.052-3.272-4.833-9.561-2.6-14.271s6.929-7.912,11.911-9.456c-6.526-.561-13.394-1.237-18.762-4.991s-8.412-11.692-4.658-17.061c2.649-3.789,7.833-5.114,12.412-4.43,4.421.667,8.543,2.886,12.385,5.061C443.01,133.539,453.949,118.575,464.535,118.321Z" transform="translate(-241.607 -118.317)" fill="#fff"/>
                    <path id="Trazado_64" data-name="Trazado 64" d="M477.637,139.812a10.9,10.9,0,0,1-6.789,13.315c7.351-.745,13.938,7.728,11.412,14.675s-13.017,9.2-18.174,3.9c4.114,4.14,3.982,11.622-.105,15.789s-11.341,4.535-15.99,1.009a13.555,13.555,0,0,1-3.982-15.745c-5.938,3.307-12.921,6.561-19.262,4.123-6.061-2.342-9.263-10.227-6.535-16.131s10.8-8.579,16.516-5.482a23.455,23.455,0,0,1-6.131-10.8,10.393,10.393,0,0,1,.062-6.351c1.3-3.237,5.166-4.965,8.614-4.456a12.832,12.832,0,0,1,8.385,5.763c-.921-4.289-1.833-8.807-.491-12.982s5.824-7.666,9.991-6.324c2.947.956,4.816,4.008,5.272,7.07a24.89,24.89,0,0,1-.807,8.912C463.69,129.041,475.4,133.093,477.637,139.812Z" transform="translate(-300.934 -106.564)" fill="#fff"/>
                    <path id="Trazado_65" data-name="Trazado 65" d="M443.462,125.774c7.464-.175,14.4,6.543,14.455,14.008,1.956-9.754,15.464-14.894,23.4-8.894s6.71,20.394-2.141,24.946c6.956-3.658,16.534-.535,20.28,6.377s1.36,16.385-5.009,20.981-15.867,4-21.849-1.088c1.9,8.947,3.342,19.227-2.307,26.429-5.4,6.886-16.824,7.886-23.349,2.044s-6.781-17.3-.535-23.429a31.592,31.592,0,0,1-16.324,3.614c-2.895-.149-5.895-.754-8.158-2.579-3.649-2.947-4.351-8.614-2.333-12.859s6.245-7.122,10.727-8.517c-5.877-.5-12.061-1.114-16.9-4.491s-7.578-10.535-4.193-15.368c2.386-3.421,7.053-4.614,11.184-3.991,3.982.6,7.692,2.6,11.157,4.561C424.077,139.484,433.927,126.011,443.462,125.774Z" transform="translate(-374.797 -60.387)" fill="#fff"/>
                    <path id="Trazado_66" data-name="Trazado 66" d="M466.394,145.451c7.465-.184,14.4,6.535,14.456,14.008,1.947-9.763,15.455-14.9,23.4-8.9s6.71,20.393-2.149,24.946c6.956-3.658,16.534-.526,20.288,6.377s1.36,16.394-5.017,20.99-15.859,4-21.85-1.1c1.912,8.947,3.351,19.236-2.3,26.428-5.412,6.886-16.823,7.886-23.35,2.044s-6.789-17.3-.535-23.428a31.618,31.618,0,0,1-16.324,3.622c-2.894-.149-5.9-.763-8.158-2.579-3.649-2.956-4.35-8.622-2.333-12.859s6.237-7.122,10.728-8.517c-5.885-.509-12.07-1.123-16.9-4.5s-7.579-10.526-4.2-15.368c2.395-3.421,7.061-4.605,11.184-3.991,3.991.605,7.7,2.6,11.166,4.561C447.009,159.161,456.859,145.679,466.394,145.451Z" transform="translate(-196.608 92.531)" fill="#fff"/>
                    <path id="Trazado_67" data-name="Trazado 67" d="M439.707,144.009c7.473-.184,14.4,6.535,14.464,14.008,1.948-9.763,15.456-14.9,23.4-8.912s6.7,20.4-2.149,24.955c6.956-3.658,16.534-.535,20.28,6.377s1.36,16.394-5.008,20.981-15.859,4-21.85-1.088c1.912,8.947,3.342,19.227-2.307,26.428-5.4,6.886-16.824,7.886-23.35,2.044s-6.78-17.3-.526-23.429a31.646,31.646,0,0,1-16.332,3.614c-2.895-.14-5.895-.754-8.149-2.579-3.658-2.947-4.359-8.613-2.342-12.859s6.245-7.123,10.727-8.508c-5.877-.509-12.061-1.123-16.9-4.5s-7.578-10.535-4.193-15.368c2.386-3.421,7.061-4.614,11.184-3.991,3.982.605,7.693,2.6,11.157,4.561C420.322,157.719,430.172,144.237,439.707,144.009Z" transform="translate(-403.97 81.325)" fill="#fff"/>
                  </g>
                  <g id="Grupo_54" data-name="Grupo 54" transform="translate(0 1.236)">
                    <path id="Trazado_68" data-name="Trazado 68" d="M743.251,777.432,582.9,796.852s-32.007-229.032-43.48-242.97c-11.482-13.973-49.226-30.463-66.742-75.865-6.421-16.631-24.21-42.454-40.893-64.751-2.359-3.166-4.693-6.228-6.956-9.2-11.412-14.876-21.42-27.121-25.578-32.156l-.044-.044a3.333,3.333,0,0,1,.412-4.64c5.824-4.728,21.472-14.719,40.7-5.061,24.464,12.289,38.481,26.139,45.278,36.56,0,0,23.271,30.709,32.577,27.376,12.193-4.395,6.447-42.217,6.447-42.217-4-60.962-8.561-127.45-8.034-174.482.079-6.5.185-13.2,2.57-19.157s7.684-11.07,13.649-10.824c8.693.342,13.622,10.7,16.4,19.657,10.684,34.4,25.937,143.94,33.042,140.668,7.885-3.789-13.315-133.879-9.131-194.262.561-7.886,7.859-27.665,20.394-28.507,17.674-1.2,22.972,31.595,24.911,42.471,9.385,52.5,20.2,174.991,27.753,174.21,7.639-.789,1.561-108.635,2.157-154.632.1-8.044.245-16.35,3.131-23.78,2.913-7.429,9.254-13.876,16.666-13.947,6.895-.061,13.017,5.4,16.263,11.991,3.272,6.6,4.21,14.236,5.1,21.674,5.377,44.621,10.114,161.948,19.763,158.615,9.245-3.228,16.4-66.856,26.227-99.758,2.824-9.473,12.955-24.42,21.648-21.683,6.79,2.123,11.658,13.964,11.456,25.981-.395,24.666-17.2,101.793-17.438,126.493-.877,89.653.263,115.485-35.086,196.63Z" transform="translate(-398.457 -116.943)" fill="#ffc0b1"/>
                    <g id="Grupo_48" data-name="Grupo 48" transform="translate(142.696 233.52)" opacity="0.5" style="mix-blend-mode: multiply;isolation: isolate">
                      <path id="Trazado_69" data-name="Trazado 69" d="M414.729,146.065c-.22-1.114,10.8,5.965,17.709,5.886.334,0,.605.009,1.027,0,6.351-.07,16.753-7.035,16.543-5.947-.622,3.158-2.4,7.008-4.447,8.894-3.605,3.316-7.429,5.184-12.429,5.237l-1,.009a19.026,19.026,0,0,1-13.061-5.228A18.033,18.033,0,0,1,414.729,146.065Z" transform="translate(-414.726 -125.514)" fill="#ffb1a7"/>
                      <path id="Trazado_70" data-name="Trazado 70" d="M421.049,148.321c-.316-1.088,11.253,4.877,18.13,4.122.333-.035.605-.052,1.026-.1,6.315-.693,16.1-8.648,15.982-7.552-.359,3.211-1.807,7.219-3.693,9.3-3.315,3.658-6.973,5.895-11.947,6.43l-.991.105a18.763,18.763,0,0,1-13.447-3.921A17.61,17.61,0,0,1,421.049,148.321Z" transform="translate(-365.636 -134.821)" fill="#ffb1a7"/>
                      <path id="Trazado_71" data-name="Trazado 71" d="M427.866,147.3c-.315-1.088,11.254,4.877,18.131,4.123.333-.035.605-.053,1.026-.1,6.315-.693,16.113-8.649,15.991-7.552-.36,3.21-1.816,7.219-3.7,9.3-3.307,3.658-6.973,5.894-11.947,6.43l-.992.105a18.773,18.773,0,0,1-13.446-3.921A17.681,17.681,0,0,1,427.866,147.3Z" transform="translate(-312.658 -142.74)" fill="#ffb1a7"/>
                      <path id="Trazado_72" data-name="Trazado 72" d="M434.141,146.636c-.272-.921,9.526,4.131,15.35,3.491.272-.035.509-.044.868-.088,5.342-.579,13.64-7.315,13.535-6.386a15.683,15.683,0,0,1-3.132,7.868,15.27,15.27,0,0,1-10.114,5.447l-.842.088a15.877,15.877,0,0,1-11.385-3.324A14.89,14.89,0,0,1,434.141,146.636Z" transform="translate(-263.884 -143.566)" fill="#ffb1a7"/>
                    </g>
                    <g id="Grupo_49" data-name="Grupo 49" transform="translate(180.818 9.612)">
                      <path id="Trazado_73" data-name="Trazado 73" d="M450.371,142.887a3.3,3.3,0,0,1-2.868,3.719l-.1.009-25.016,1.93h0a3.163,3.163,0,0,1-3.289-3.219c-.246-9.964.859-26.4,13.332-27.253C444.2,117.274,449.072,130.949,450.371,142.887Z" transform="translate(-419.072 -118.039)" fill="#ffb1a7" opacity="0.4" style="mix-blend-mode: multiply;isolation: isolate"/>
                      <path id="Trazado_74" data-name="Trazado 74" d="M444.466,126.424l-25.016,1.93c1.368-4.043,6.237-7.263,12.192-7.675C437.484,120.284,442.58,122.714,444.466,126.424Z" transform="translate(-416.132 -97.849)" fill="#fff" opacity="0.5"/>
                    </g>
                    <g id="Grupo_50" data-name="Grupo 50" transform="translate(0.759 252.019)">
                      <path id="Trazado_75" data-name="Trazado 75" d="M439.138,175.41l-.123.088-11.727,9.386c-2.062-2.763-4.167-5.386-6.149-7.982-9.947-12.982-18.964-23.806-22.6-28.192,15.034-9.315,31.244,4.465,41.708,19.025A5.666,5.666,0,0,1,439.138,175.41Z" transform="translate(-398.544 -145.675)" fill="#ffb1a7" opacity="0.4" style="mix-blend-mode: multiply;isolation: isolate"/>
                      <path id="Trazado_76" data-name="Trazado 76" d="M419.112,150.71,407.368,160.1c-2.053-2.754-4.289-5.579-6.263-8.175C407.771,148.289,414.587,147.9,419.112,150.71Z" transform="translate(-378.641 -120.888)" fill="#fff" opacity="0.5"/>
                    </g>
                    <g id="Grupo_51" data-name="Grupo 51" transform="translate(255.56 30.461)">
                      <path id="Trazado_77" data-name="Trazado 77" d="M458.883,145.265a3.285,3.285,0,0,1-2.868,3.719l-.1.009-25.008,1.93h0a3.164,3.164,0,0,1-3.289-3.219c-.246-9.964.851-26.4,13.324-27.253C452.716,119.643,457.594,133.327,458.883,145.265Z" transform="translate(-427.593 -120.416)" fill="#ffb1a7" opacity="0.4" style="mix-blend-mode: multiply;isolation: isolate"/>
                      <path id="Trazado_78" data-name="Trazado 78" d="M452.979,128.8l-25.007,1.93c1.36-4.044,6.237-7.272,12.192-7.675C446,122.661,451.1,125.091,452.979,128.8Z" transform="translate(-424.653 -100.225)" fill="#fff" opacity="0.5"/>
                    </g>
                    <g id="Grupo_52" data-name="Grupo 52" transform="translate(342.637 99.735)">
                      <path id="Trazado_79" data-name="Trazado 79" d="M458.86,148.552a2.228,2.228,0,0,1-2.57,1.938l-.071-.009L439.2,146.991h0a2.251,2.251,0,0,1-1.614-2.789c1.605-6.719,5.271-17.508,13.736-15.683C459.308,130.229,460.124,140.316,458.86,148.552Z" transform="translate(-437.52 -128.314)" fill="#ffb1a7" opacity="0.4" style="mix-blend-mode: multiply;isolation: isolate"/>
                      <path id="Trazado_80" data-name="Trazado 80" d="M454.728,136.667l-17.016-3.491c1.631-2.447,5.456-3.675,9.5-2.807C451.176,131.22,454.141,133.825,454.728,136.667Z" transform="translate(-436.028 -114.499)" fill="#fff" opacity="0.5"/>
                    </g>
                    <g id="Grupo_53" data-name="Grupo 53" transform="translate(122.086 69.939)">
                      <path id="Trazado_81" data-name="Trazado 81" d="M437.358,145.391a2.605,2.605,0,0,1-2.4,2.86h-.079l-19.981.553h0a2.545,2.545,0,0,1-2.518-2.693c.131-7.947,1.553-21.008,11.517-21.192C433.3,124.743,436.726,135.831,437.358,145.391Z" transform="translate(-412.376 -124.917)" fill="#ffb1a7" opacity="0.4" style="mix-blend-mode: multiply;isolation: isolate"/>
                      <path id="Trazado_82" data-name="Trazado 82" d="M432.644,132.079l-19.982.552c1.219-3.166,5.2-5.544,9.965-5.631C427.294,126.913,431.267,129.044,432.644,132.079Z" transform="translate(-410.145 -108.745)" fill="#fff" opacity="0.5"/>
                    </g>
                  </g>
                </g>
              </g>
            </g>
            <g id="Grupo_39" data-name="Grupo 39" transform="translate(390.039 430.577)" style="mix-blend-mode: multiply;isolation: isolate">
              <g id="Grupo_37" data-name="Grupo 37" transform="translate(0 39.422)">
                <path id="Trazado_41" data-name="Trazado 41" d="M384.1,155.1l20.948-19.116L419.73,161.3" transform="translate(-384.096 -135.984)" fill="none" stroke="#678cff" stroke-linecap="round" stroke-linejoin="round" stroke-width="7.06"/>
                <path id="Trazado_42" data-name="Trazado 42" d="M388.387,137.282S375.765,218.5,410.465,257.135" transform="translate(-368.145 -125.899)" fill="none" stroke="#678cff" stroke-linecap="round" stroke-linejoin="round" stroke-width="7.06"/>
              </g>
              <g id="Grupo_38" data-name="Grupo 38" transform="translate(64.661)">
                <path id="Trazado_43" data-name="Trazado 43" d="M427.861,149.767l-20.948,19.115L392.23,143.565" transform="translate(-385.549 -37.649)" fill="none" stroke="#678cff" stroke-linecap="round" stroke-linejoin="round" stroke-width="7.06"/>
                <path id="Trazado_44" data-name="Trazado 44" d="M413.546,251.343s12.613-81.215-22.078-119.853" transform="translate(-391.468 -131.49)" fill="none" stroke="#678cff" stroke-linecap="round" stroke-linejoin="round" stroke-width="7.06"/>
              </g>
            </g>
          </g>
        </g>
      </g>
    </g>
  </g>
</svg>
