<svg xmlns="http://www.w3.org/2000/svg" xmlns:xlink="http://www.w3.org/1999/xlink" width="800" height="800" viewBox="0 0 800 800">
  <defs>
    <clipPath id="clip-path">
      <circle id="Elipse_4" data-name="Elipse 4" cx="371.846" cy="371.846" r="371.846" transform="translate(17.933 17.933)" fill="none"/>
    </clipPath>
    <clipPath id="clip-_5">
      <rect width="800" height="800"/>
    </clipPath>
  </defs>
  <g id="_5" data-name="5" clip-path="url(#clip-_5)">
    <g id="Grupo_102" data-name="Grupo 102" transform="translate(10.221 -10.28)" clip-path="url(#clip-path)">
      <g id="Grupo_101" data-name="Grupo 101" transform="translate(156.999 141.851)">
        <g id="Grupo_100" data-name="Grupo 100" transform="translate(0)">
          <g id="Grupo_90" data-name="Grupo 90" transform="translate(35.99)">
            <g id="Grupo_88" data-name="Grupo 88">
              <path id="Trazado_106" data-name="Trazado 106" d="M301.135,893.058,147.961,874.2s9.37-223.974,1.936-239.537c-7.434-15.6-38.643-39.557-44.451-85.692-2.129-16.9-12.688-44.937-23.038-69.451-1.458-3.478-2.925-6.855-4.341-10.132-7.157-16.418-13.627-30.07-16.326-35.7l-.025-.05a3.185,3.185,0,0,1,1.441-4.207c6.487-3.042,23.3-8.716,38.912,4.66,19.871,17.021,29.676,33.1,33.581,44.317,0,0,14.532,33.825,23.927,32.877,12.311-1.274,14-30.3,14-30.3-2.078-58.329-14.448-117.464-17.574-162.3-.436-6.193-.846-12.579.964-18.446s6.462-11.13,12.16-11.356c8.305-.335,13.795,9.143,17.147,17.457C199.1,338.265,223,443.392,229.883,440.467c7.643-3.394,16.77-119.819,29.668-176.187,1.7-7.358,11.523-24.949,23.483-23.885,16.854,1.484,16.988,33.229,17.214,43.781,1.064,50.946-7.895,169.793-.721,170.8,7.275,1.031,32.375-97.342,43.663-139.815,1.969-7.425,4.048-15.085,8.465-21.3s11.808-10.694,18.689-9.034c6.4,1.559,10.794,8.045,12.269,14.909,1.483,6.881.57,14.172-.344,21.271-5.431,42.6-27.1,154.054-17.39,153.182,9.319-.871,42.088-52.505,58.849-80.706,4.827-8.121,17.7-19.6,25.117-15.052,5.8,3.553,7.543,15.655,4.567,26.742-6.118,22.771-39.6,93.571-48.776,115.31-33.3,78.93-41.174,94.484-92.607,161.605Z" transform="translate(-61.408 -240.349)" fill="#ffaf9f"/>
            </g>
            <g id="Grupo_89" data-name="Grupo 89" transform="translate(41.112 110.826)">
              <path id="Trazado_107" data-name="Trazado 107" d="M113.329,273.846c-3.3-2.732-8.305-2.171-11.825,2.724-4.283,5.95-1.609,15.764,6.713,14.825C116.061,290.5,119.43,278.9,113.329,273.846Z" transform="translate(178.522 -115.982)" fill="#fff"/>
              <path id="Trazado_108" data-name="Trazado 108" d="M90.528,254.013c-5.112,1.542-7.978,7.115-5.33,14.147,3.218,8.548,15.244,12.529,20,3.252C109.678,262.67,99.973,251.172,90.528,254.013Z" transform="translate(65.648 -253.573)" fill="#fff"/>
              <path id="Trazado_109" data-name="Trazado 109" d="M115.31,262.3a10.659,10.659,0,0,1,10.5,10.183c1.425-7.1,11.23-10.828,17-6.47s4.878,14.817-1.559,18.119c5.053-2.657,12.018-.377,14.742,4.634a12.276,12.276,0,0,1-3.646,15.253,13.285,13.285,0,0,1-15.873-.8c1.391,6.5,2.43,13.971-1.676,19.2-3.931,5-12.219,5.733-16.963,1.492s-4.928-12.571-.385-17.03a22.983,22.983,0,0,1-11.867,2.632,10.167,10.167,0,0,1-5.925-1.877c-2.648-2.146-3.16-6.26-1.693-9.336a12.584,12.584,0,0,1,7.794-6.193c-4.274-.369-8.766-.813-12.278-3.269s-5.515-7.643-3.051-11.163c1.735-2.481,5.129-3.344,8.121-2.9a24.4,24.4,0,0,1,8.113,3.319C101.222,272.266,108.379,262.469,115.31,262.3Z" transform="translate(103.654 -189.166)" fill="#fff"/>
              <path id="Trazado_110" data-name="Trazado 110" d="M124.033,287.93a10.41,10.41,0,0,1-6.495,12.722c7.031-.712,13.325,7.383,10.912,14.021s-12.437,8.792-17.365,3.729c3.931,3.956,3.8,11.1-.1,15.086a11.983,11.983,0,0,1-15.278.963,12.951,12.951,0,0,1-3.8-15.043c-5.674,3.16-12.345,6.269-18.4,3.939-5.8-2.238-8.85-9.772-6.244-15.412s10.317-8.2,15.781-5.229a22.475,22.475,0,0,1-5.858-10.325,9.867,9.867,0,0,1,.059-6.068c1.24-3.092,4.936-4.743,8.23-4.258a12.3,12.3,0,0,1,8.012,5.5c-.88-4.09-1.752-8.405-.469-12.395s5.565-7.333,9.546-6.042c2.816.905,4.593,3.83,5.037,6.755a23.976,23.976,0,0,1-.771,8.515C110.7,277.639,121.9,281.51,124.033,287.93Z" transform="translate(-66.314 -140.928)" fill="#fff"/>
              <path id="Trazado_111" data-name="Trazado 111" d="M109,257.7c7.14-.176,13.761,6.243,13.82,13.384,1.861-9.328,14.767-14.239,22.36-8.507s6.4,19.485-2.053,23.835c6.646-3.495,15.8-.5,19.376,6.093s1.3,15.664-4.785,20.055-15.161,3.822-20.876-1.047c1.827,8.548,3.193,18.379-2.2,25.251-5.163,6.579-16.074,7.534-22.31,1.953s-6.478-16.527-.5-22.385a30.324,30.324,0,0,1-15.6,3.461,13.375,13.375,0,0,1-7.786-2.464c-3.495-2.824-4.165-8.238-2.238-12.286s5.967-6.805,10.249-8.138c-5.615-.486-11.523-1.073-16.15-4.3s-7.241-10.057-4.006-14.683c2.279-3.26,6.746-4.4,10.685-3.813,3.8.578,7.35,2.489,10.66,4.358C90.477,270.8,99.889,257.914,109,257.7Z" transform="translate(-3.283 -223.163)" fill="#fff"/>
            </g>
          </g>
          <g id="Grupo_94" data-name="Grupo 94" transform="translate(0 98.886)">
            <g id="Grupo_91" data-name="Grupo 91">
              <path id="Trazado_112" data-name="Trazado 112" d="M385.721,308.142c-7.258,29.324-18.119,66.115-24.581,68.06-6.294,1.885-3.076-76.072-2.523-86.64,1.877-13.1-14.524-22.25-23.541-20.868-8.356,1.291-17.331,7.308-20.4,19.276-7,40.378-15.043,81.117-19.628,81.393-4.76.285-8.439-45.3-12.521-94.459-.226-7.35-9.973-24.606-28.553-22.595-15.337,1.66-21.136,18.1-21.036,29.006,2.171,46.722,5.288,89.347.846,91.249-3.855,1.584-15.253-16.711-27.447-48-2.4-6.151-6.621-11.641-12.5-14.658-6.6-3.394-12.563-2.263-17.633-.059-19.586,8.49-15.177,24.589-15.169,24.832,7.082,29.818,15.228,61.64,22.946,92,0,0,5.129,21.061-8.1,24.949-9.06,2.665-36.775-26.709-36.775-26.709-6.059-10.225-18.882-24.028-41.728-36.75-17.968-10-33.313-1.106-39.062,3.176a3.174,3.174,0,0,0-.578,4.408l.034.05c3.771,4.97,12.822,17.063,23.1,31.729,2.045,2.933,4.148,5.951,6.277,9.068,15.018,21.966,30.941,47.343,36.4,63.484,14.867,44.049,50.217,61.33,60.609,75.133C194.541,589,215.752,808.939,215.752,808.939l153.861-11.993-7.107-207.934c37.051-76.021,37.018-100.719,41.5-186.269.905-17.264,11.431-60.97,17.549-92.389,1.534-9.956-11.146-17.75-17.809-17.909C397.387,292.294,388.219,298.571,385.721,308.142Z" transform="translate(-57.114 -252.148)" fill="#ffc0b1"/>
            </g>
            <g id="Grupo_92" data-name="Grupo 92" transform="translate(111.266 8.053)" opacity="0.5" style="mix-blend-mode: multiply;isolation: isolate">
              <path id="Trazado_113" data-name="Trazado 113" d="M125.134,268.643c.084.679-8.129-4.769-13.669-5.557-.268-.034-.486-.076-.83-.126-5.087-.72-14.029,2.1-13.769,1.492a10.1,10.1,0,0,1,4.35-4.66,17.392,17.392,0,0,1,10.409-1.559l.8.117a18.763,18.763,0,0,1,10.007,4.618A9.837,9.837,0,0,1,125.134,268.643Z" transform="translate(124.976 -216.813)" fill="#ffb1a7"/>
              <path id="Trazado_114" data-name="Trazado 114" d="M116.625,266.32c.059.461-5.6-3.285-9.411-3.822-.176-.034-.335-.059-.562-.092-3.5-.495-9.655,1.442-9.479,1.023a6.961,6.961,0,0,1,2.992-3.2,11.967,11.967,0,0,1,7.166-1.073l.545.083a12.987,12.987,0,0,1,6.889,3.168A6.883,6.883,0,0,1,116.625,266.32Z" transform="translate(127.258 -209.546)" fill="#ffb1a7"/>
              <path id="Trazado_115" data-name="Trazado 115" d="M119.452,263.449c.243.7-9.663-3.512-15.68-3.285-.285.008-.528.008-.888.025-5.523.2-14.264,4.878-14.121,4.182a10.22,10.22,0,0,1,3.461-5.749,17.97,17.97,0,0,1,10.585-3.629l.863-.033a20.869,20.869,0,0,1,11.6,2.992A11.264,11.264,0,0,1,119.452,263.449Z" transform="translate(65.188 -239.536)" fill="#ffb1a7"/>
              <path id="Trazado_116" data-name="Trazado 116" d="M111.779,262.313c.184.511-7.056-2.564-11.448-2.405l-.654.017c-4.039.151-10.426,3.57-10.325,3.067a7.518,7.518,0,0,1,2.539-4.207,13.186,13.186,0,0,1,7.727-2.656l.629-.017a15.275,15.275,0,0,1,8.481,2.179A8.219,8.219,0,0,1,111.779,262.313Z" transform="translate(69.55 -231.016)" fill="#ffb1a7"/>
              <path id="Trazado_117" data-name="Trazado 117" d="M109.812,261.61c.243.7-9.663-3.512-15.672-3.285-.293.008-.528.008-.9.025-5.523.2-14.264,4.878-14.121,4.191a10.209,10.209,0,0,1,3.469-5.758,18,18,0,0,1,10.577-3.629l.863-.034a20.938,20.938,0,0,1,11.6,2.992A11.3,11.3,0,0,1,109.812,261.61Z" transform="translate(-5.962 -253.109)" fill="#ffb1a7"/>
              <path id="Trazado_118" data-name="Trazado 118" d="M96.211,259.078c.126.369-5.1-1.852-8.28-1.735l-.469.009c-2.917.109-7.534,2.581-7.459,2.213a5.383,5.383,0,0,1,1.835-3.034,9.494,9.494,0,0,1,5.582-1.919l.453-.017A11.015,11.015,0,0,1,94,256.17,5.954,5.954,0,0,1,96.211,259.078Z" transform="translate(0.548 -242.188)" fill="#ffb1a7"/>
              <path id="Trazado_119" data-name="Trazado 119" d="M95.034,263.607c.377.511-8.691-.436-13.5,1.24-.226.076-.427.134-.721.243-4.417,1.534-10.325,7.492-10.384,6.9a8.646,8.646,0,0,1,1.374-5.523,15.264,15.264,0,0,1,7.66-5.565l.7-.235a17.6,17.6,0,0,1,10.124-.469A9.547,9.547,0,0,1,95.034,263.607Z" transform="translate(-70.39 -204.754)" fill="#ffb1a7"/>
              <path id="Trazado_120" data-name="Trazado 120" d="M86.878,263.423c.235.327-5.489-.277-8.532.779l-.453.159c-2.791.972-6.529,4.735-6.562,4.358a5.454,5.454,0,0,1,.863-3.486,9.655,9.655,0,0,1,4.844-3.52l.436-.151a11.209,11.209,0,0,1,6.4-.293A6.065,6.065,0,0,1,86.878,263.423Z" transform="translate(-63.625 -195.36)" fill="#ffb1a7"/>
            </g>
            <g id="Grupo_93" data-name="Grupo 93" transform="translate(0.637 141.247)">
              <path id="Trazado_121" data-name="Trazado 121" d="M94.844,298.639l-.117.075L83.145,307.2c-1.852-2.715-3.755-5.313-5.54-7.87-8.967-12.8-17.13-23.491-20.415-27.832,14.725-8.28,29.643,5.539,39.037,19.862A5.413,5.413,0,0,1,94.844,298.639Z" transform="translate(-57.19 -269.002)" fill="#ffb1a7" opacity="0.4" style="mix-blend-mode: multiply;isolation: isolate"/>
              <path id="Trazado_122" data-name="Trazado 122" d="M76.851,274.366l-11.59,8.5c-1.852-2.724-3.864-5.514-5.649-8.062C66.132,271.592,72.644,271.5,76.851,274.366Z" transform="translate(-39.314 -244.652)" fill="#fff" opacity="0.5"/>
            </g>
          </g>
          <g id="Grupo_99" data-name="Grupo 99" transform="translate(173.128 294.966)">
            <g id="Grupo_96" data-name="Grupo 96" transform="translate(15.463)">
              <g id="Grupo_95" data-name="Grupo 95">
                <path id="Trazado_123" data-name="Trazado 123" d="M86.787,275.544l26.739,4.382-10.282,26" transform="translate(-26.694 -275.544)" fill="none" stroke="#678cff" stroke-linecap="round" stroke-linejoin="round" stroke-width="7.06"/>
                <path id="Trazado_124" data-name="Trazado 124" d="M157.49,276.808S89.07,318.87,79.617,380.737" transform="translate(-79.617 -266.218)" fill="none" stroke="#678cff" stroke-linecap="round" stroke-linejoin="round" stroke-width="7.06"/>
              </g>
            </g>
            <g id="Grupo_98" data-name="Grupo 98">
              <g id="Grupo_97" data-name="Grupo 97">
                <path id="Trazado_125" data-name="Trazado 125" d="M104.511,275.544l-26.739,4.382,10.282,26" transform="translate(-77.772 -275.544)" fill="none" stroke="#678cff" stroke-linecap="round" stroke-linejoin="round" stroke-width="7.06"/>
                <path id="Trazado_126" data-name="Trazado 126" d="M78.84,276.808s68.429,42.062,77.874,103.929" transform="translate(-69.889 -266.218)" fill="none" stroke="#678cff" stroke-linecap="round" stroke-linejoin="round" stroke-width="7.06"/>
              </g>
            </g>
          </g>
        </g>
      </g>
    </g>
  </g>
</svg>
