<svg xmlns="http://www.w3.org/2000/svg" xmlns:xlink="http://www.w3.org/1999/xlink" width="800" height="800" viewBox="0 0 800 800">
  <defs>
    <clipPath id="clip-path">
      <circle id="Elipse_15" data-name="Elipse 15" cx="400.499" cy="400.499" r="400.499" transform="translate(0 800.997) rotate(-90)" fill="none"/>
    </clipPath>
    <clipPath id="clip-_6">
      <rect width="800" height="800"/>
    </clipPath>
  </defs>
  <g id="_6" data-name="6" clip-path="url(#clip-_6)">
    <g id="Grupo_103" data-name="Grupo 103" transform="translate(-19.584 -18.556)">
      <g id="Grupo_101" data-name="Grupo 101" transform="translate(18.556 18.556)">
        <g id="Grupo_100" data-name="Grupo 100" transform="translate(0)" clip-path="url(#clip-path)">
          <g id="Grupo_99" data-name="Grupo 99" transform="translate(-9.844 168.179)">
            <g id="Grupo_98" data-name="Grupo 98">
              <g id="Grupo_94" data-name="Grupo 94">
                <g id="Grupo_88" data-name="Grupo 88" transform="translate(0 28.068)">
                  <g id="Grupo_87" data-name="Grupo 87">
                    <g id="Grupo_85" data-name="Grupo 85">
                      <path id="Trazado_106" data-name="Trazado 106" d="M261.42,740.614,151.929,599.277S320.183,485.634,326.961,468.159c6.8-17.493,2.952-61.605,34.761-99.255,11.653-13.792,25.9-42.794,37.559-69.125,1.652-3.728,3.24-7.384,4.766-10.94,7.645-17.836,13.63-33.109,16.067-39.436l.018-.063a3.14,3.14,0,0,1,4.333-1.706c7.068,3.493,23.631,14.136,24.48,37.189,1.074,29.318-4.378,49.221-10.317,60.55,0,0-15.9,36.548-8.367,44.067,9.884,9.821,40.727-12.953,40.727-12.953,52.281-31.611,61.163,30.428,67.563,35.844,7.239,5.921,32.387,52.281,36.792,59.241,4.45,7.068,23.315,53.329,31.024,61.172,7.411,7.5,65.686,16.545,43.589,27.549-80.209,39.933-153.3,79.993-242.848,82.6Z" transform="translate(-151.929 -247.303)" fill="#ffaf9f"/>
                    </g>
                    <g id="Grupo_86" data-name="Grupo 86" transform="translate(183.49 168.619)" opacity="0.6" style="mix-blend-mode: multiply;isolation: isolate">
                      <path id="Trazado_107" data-name="Trazado 107" d="M255.039,266.213s-2.076,35.871-20.12,73.746c-13.3,27.892-58.013,71.327-58.013,71.327s52.994-32.874,70.75-59.5C272.722,314.2,255.039,266.213,255.039,266.213Z" transform="translate(-134.942 -264.146)" fill="#ffb1a7"/>
                      <path id="Trazado_108" data-name="Trazado 108" d="M186.706,265.984s39.735,58.654,50.386,82.962S261.969,418.5,261.969,418.5s-43.318-70.741-50.16-88.6C202.755,306.287,186.706,265.984,186.706,265.984Z" transform="translate(-56.282 -265.984)" fill="#ffb1a7"/>
                      <path id="Trazado_109" data-name="Trazado 109" d="M250.7,350.6s-38.119-10.886-54.628-29.625c-18.685-21.2-23.812-37.315-23.812-37.315s3.683,35.952,26.736,53.111C225.179,356.257,250.7,350.6,250.7,350.6Z" transform="translate(-172.257 -124.132)" fill="#ffb1a7"/>
                    </g>
                  </g>
                </g>
                <g id="Grupo_89" data-name="Grupo 89" transform="translate(289.545 99.828)">
                  <path id="Trazado_110" data-name="Trazado 110" d="M199.629,284.5c-6.075,1.345-7.979,8.585-7.438,15.977.776,10.624,16.636,15.914,22.981,5.533C221.139,296.233,210.849,282.016,199.629,284.5Z" transform="translate(-119.016 -22.816)" fill="#fff"/>
                  <path id="Trazado_111" data-name="Trazado 111" d="M200.495,268.379c-3.556-2.934-8.945-2.338-12.736,2.934-4.622,6.417-1.733,16.979,7.23,15.968C203.429,286.324,207.066,273.822,200.495,268.379Z" transform="translate(-171.36 -163.974)" fill="#fff"/>
                  <path id="Trazado_112" data-name="Trazado 112" d="M190.828,273.333c-5.5,1.661-8.593,7.654-5.741,15.227,3.466,9.207,16.419,13.5,21.546,3.511C211.462,282.657,201,270.264,190.828,273.333Z" transform="translate(-184.006 -113.966)" fill="#fff"/>
                  <path id="Trazado_113" data-name="Trazado 113" d="M410.067,427.953c25.825-1.426,33.344-37.514,28.136-52.1-8.918-24.986-29.778-29.182-56.948-27.531.235-.2.451-.424.677-.632,13.522-9.468,21.266-27.241,17.069-43.21-4.279-16.292-21.8-28.5-38.317-25.2-8.72,1.742-15.535,6.833-20.815,13.693a29.754,29.754,0,0,0-6.652,6c1.056-22.666-19.082-44.916-41.739-43.67-37.18,2.04-29.372,37.938-30.338,61.858-6.878-13.089-22.079-21.8-36.683-19.506s-26.818,16.492-25.41,31.2c1.616,16.889,17.746,27.4,34.4,33.073-15.173-2.166-31.872,7.582-37.018,22.4A26.965,26.965,0,0,0,192.1,401.18c1.11,11.644,9.18,20.192,19.506,26.285a36.659,36.659,0,0,0,6.869,3.972,37.669,37.669,0,0,0,4.477,1.471c1.182.451,2.356.939,3.548,1.345-15.4-2.2-32.4,7.862-37.27,23.045-5.75,17.936,4.983,39.022,22.3,46.459s38.859,1.67,51.514-12.285c-2.527,13.088-.587,27.432,7.311,38.182s22.277,17.015,35.122,13.431c11.987-3.34,20.616-14.316,24.516-26.132s3.827-24.516,3.719-36.963c3.475,10.453,36.765,43.823,68.033,21.943C436.307,477.734,430.855,441.483,410.067,427.953Z" transform="translate(-154.648 -255.253)" fill="#fff"/>
                </g>
                <g id="Grupo_93" data-name="Grupo 93" transform="translate(336.56)">
                  <g id="Grupo_90" data-name="Grupo 90">
                    <path id="Trazado_114" data-name="Trazado 114" d="M199.028,431.06c5.407,6.2,12.574,6.03,16.04,14.993,2.32,5.993-2.771,17.06-3.213,23.478a27.084,27.084,0,0,0,6.968,19.9c4.513,4.937,13.594,8.837,16.834,14.686,3.15,5.687-5.75,19.253.587,35.294,6.039,15.273,21.835,17.8,23.406,20.355,3,4.875-5.912,27.359,5.822,42.7l.072.126c10.236,15.824,40.9-.144,48.337-3.222,9.541-3.953,19.046-7.907,28.415-11.789,0,0,34.951-18.134,43.264-7.709,6.337,7.962-15.878,40.809-15.878,40.809-7.9,10.073-16.753,28.316-20.616,56.217-3.042,21.943,11.879,33.876,18.414,37.983a3.414,3.414,0,0,0,4.649-1.137l.036-.054c3.529-5.722,12.141-19.524,22.855-35.573,2.148-3.186,4.36-6.481,6.653-9.821,16.2-23.649,35.465-49.528,49.546-61.3,38.435-32.107,41.991-74.342,51.8-90.148C512.806,501.051,725.344,394,725.344,394l-72.031-149.8L464.19,336.219a51.9,51.9,0,0,1-26.393,5.01c-84.894-6.021-159.029-.614-237.306,46.342-12.962,7.781-11.987,16.69-10.317,25.094A39.6,39.6,0,0,0,199.028,431.06Z" transform="translate(-189.215 -244.194)" fill="#ffc0b1"/>
                  </g>
                  <g id="Grupo_91" data-name="Grupo 91" transform="translate(20.26 161.216)" opacity="0.5" style="mix-blend-mode: multiply;isolation: isolate">
                    <path id="Trazado_115" data-name="Trazado 115" d="M209.113,314.4c-1.038.541,2.816-12.375.767-19.181-.09-.334-.163-.605-.289-1.02-1.877-6.255-11.734-14.56-10.606-14.659,3.3-.289,7.627.379,10.073,1.859,4.306,2.618,7.248,5.867,8.72,10.8l.289.983a19.506,19.506,0,0,1-1.444,14.406A18.472,18.472,0,0,1,209.113,314.4Z" transform="translate(-131.768 -122.254)" fill="#ffb1a7"/>
                    <path id="Trazado_116" data-name="Trazado 116" d="M209.587,307.74c-.984.623,1.616-12.52-1.092-19.109-.135-.307-.226-.578-.4-.984-2.482-6.048-13.143-13.458-12.014-13.648,3.268-.559,7.654-.271,10.245,1,4.558,2.23,7.808,5.208,9.758,9.983l.388.939a19.279,19.279,0,0,1-.045,14.415A18.077,18.077,0,0,1,209.587,307.74Z" transform="translate(-155.015 -168.365)" fill="#ffb1a7"/>
                    <path id="Trazado_117" data-name="Trazado 117" d="M206.717,301.472c-.984.623,1.616-12.52-1.092-19.1-.126-.316-.226-.587-.388-.993-2.482-6.048-13.143-13.458-12.023-13.648,3.277-.56,7.655-.271,10.245,1,4.559,2.229,7.817,5.209,9.767,9.983l.388.948a19.255,19.255,0,0,1-.045,14.407A18.166,18.166,0,0,1,206.717,301.472Z" transform="translate(-178.042 -218.675)" fill="#ffb1a7"/>
                    <path id="Trazado_118" data-name="Trazado 118" d="M202.965,290.855c-.83.524,1.363-10.6-.93-16.175-.108-.271-.19-.5-.325-.84-2.1-5.118-11.13-11.391-10.182-11.554a16.089,16.089,0,0,1,8.674.849,15.685,15.685,0,0,1,8.268,8.448l.325.8a16.3,16.3,0,0,1-.036,12.2A15.467,15.467,0,0,1,202.965,290.855Z" transform="translate(-191.459 -262.054)" fill="#ffb1a7"/>
                  </g>
                  <g id="Grupo_92" data-name="Grupo 92" transform="translate(175.531 420.175)">
                    <path id="Trazado_119" data-name="Trazado 119" d="M228.745,291.672l.117.09,13.034,8.323c-2,2.916-3.872,5.84-5.741,8.629-9.351,13.991-16.907,26.357-19.985,31.349-14.054-11.553-5.994-31.918,4.721-46.937A5.837,5.837,0,0,1,228.745,291.672Z" transform="translate(-208.661 -290.743)" fill="#ffb1a7" opacity="0.4" style="mix-blend-mode: multiply;isolation: isolate"/>
                    <path id="Trazado_120" data-name="Trazado 120" d="M211.165,290.856l13.052,8.331c-2,2.916-4.017,6.021-5.894,8.81C212.564,302.708,209.928,296.2,211.165,290.856Z" transform="translate(-190.964 -289.837)" fill="#fff" opacity="0.5"/>
                  </g>
                </g>
              </g>
              <g id="Grupo_97" data-name="Grupo 97" transform="translate(210.07 153.271)">
                <g id="Grupo_95" data-name="Grupo 95" transform="translate(0 97.811)">
                  <path id="Trazado_121" data-name="Trazado 121" d="M175.2,295.8l16.9-23.792,20.287,22.261" transform="translate(-175.202 -272.01)" fill="none" stroke="#678cff" stroke-linecap="round" stroke-linejoin="round" stroke-width="7.06"/>
                  <path id="Trazado_122" data-name="Trazado 122" d="M204.939,283.6l4.872,28.774-30.086-1.4" transform="translate(-138.891 -178.948)" fill="none" stroke="#678cff" stroke-linecap="round" stroke-linejoin="round" stroke-width="7.06"/>
                  <path id="Trazado_123" data-name="Trazado 123" d="M177.03,273.1s5.019,84.434,48.328,115.728" transform="translate(-160.527 -263.295)" fill="none" stroke="#678cff" stroke-linecap="round" stroke-linejoin="round" stroke-width="7.06"/>
                </g>
                <g id="Grupo_96" data-name="Grupo 96" transform="translate(210.657)">
                  <path id="Trazado_124" data-name="Trazado 124" d="M227.547,264.364l-29.008-3.19,3.142,29.954" transform="translate(-198.539 -261.174)" fill="none" stroke="#678cff" stroke-linecap="round" stroke-linejoin="round" stroke-width="7.06"/>
                  <path id="Trazado_125" data-name="Trazado 125" d="M203.117,276.826l20.266,21,16.733-25.041" transform="translate(-161.797 -167.985)" fill="none" stroke="#678cff" stroke-linecap="round" stroke-linejoin="round" stroke-width="7.06"/>
                  <path id="Trazado_126" data-name="Trazado 126" d="M199.226,261.915s59.737,59.873,54.321,113.039" transform="translate(-193.028 -255.228)" fill="none" stroke="#678cff" stroke-linecap="round" stroke-linejoin="round" stroke-width="7.06"/>
                </g>
              </g>
            </g>
          </g>
        </g>
      </g>
    </g>
  </g>
</svg>
