<svg xmlns="http://www.w3.org/2000/svg" xmlns:xlink="http://www.w3.org/1999/xlink" width="800" height="800" viewBox="0 0 800 800">
  <defs>
    <clipPath id="clip-path">
      <circle id="Elipse_17" data-name="Elipse 17" cx="374.907" cy="374.907" r="374.907" transform="translate(23.555 773.254) rotate(-89)" fill="none"/>
    </clipPath>
    <clipPath id="clip-_7">
      <rect width="800" height="800"/>
    </clipPath>
  </defs>
  <g id="_7" data-name="7" clip-path="url(#clip-_7)">
    <g id="Grupo_122" data-name="Grupo 122" transform="translate(-4.473 -4.449)" clip-path="url(#clip-path)">
      <g id="Grupo_121" data-name="Grupo 121" transform="translate(98.879 104.707)">
        <g id="Grupo_120" data-name="Grupo 120">
          <g id="Grupo_117" data-name="Grupo 117">
            <g id="Grupo_110" data-name="Grupo 110" transform="translate(180.953)">
              <path id="Trazado_127" data-name="Trazado 127" d="M708.126,880.32,551.013,935.6s-76.876-266.486-90.251-277.606c-13.393-11.137-52.084-19.9-76.884-59.68-9.083-14.576-30.6-35.784-50.419-53.867-2.805-2.56-5.568-5.044-8.247-7.444-13.494-12.007-25.172-21.775-30.022-25.788l-.051-.034a3.212,3.212,0,0,1-.456-4.461c4.664-5.535,17.66-17.82,37.6-12.167,25.374,7.2,41.141,17.77,49.456,26.4,0,0,27.58,24.834,35.785,20,10.74-6.371-1.555-41.108-1.555-41.108C401.149,442.888,384.79,380.8,376.78,336.2c-1.107-6.16-2.222-12.522-1.039-18.589S381,305.75,386.683,304.9c8.3-1.25,14.829,7.655,19.088,15.623,16.333,30.613,50.605,131.494,56.74,127.109,6.776-5.011-36.849-124.261-43.82-182.142-.9-7.562,2.425-27.6,14.128-30.672,16.5-4.335,27.453,25.737,31.263,35.674,18.387,47.977,50.808,161.913,57.8,159.8,7.089-2.121-18.192-103.061-25.966-146.695-1.361-7.622-2.721-15.505-1.335-23.059,1.4-7.554,6.245-14.8,13.232-16.223,6.515-1.293,13.3,2.763,17.567,8.407,4.284,5.653,6.557,12.708,8.746,19.586,13.173,41.243,38.894,151.393,47.42,146.484,8.171-4.723,3.406-66.22,6.743-99.123.963-9.481,7.841-25.451,16.561-24.445,6.811.786,13.554,11.1,15.547,22.51,4.09,23.414,2.155,99.428,6.4,122.833,15.412,84.987,21.167,109.221,2.417,192.391Z" transform="translate(-293.984 -234.399)" fill="#ffc0b1"/>
              <g id="Grupo_104" data-name="Grupo 104" transform="translate(135.299 194.611)" opacity="0.5" style="mix-blend-mode: multiply;isolation: isolate">
                <path id="Trazado_128" data-name="Trazado 128" d="M310.008,269.783c-.422-1.014,11.289,3.693,17.812,2.366.313-.059.583-.1.98-.186,5.991-1.217,14.576-9.692,14.568-8.627-.017,3.1-1.006,7.073-2.594,9.227a17.066,17.066,0,0,1-10.816,7.2l-.938.186a18.249,18.249,0,0,1-13.3-2.577A17.3,17.3,0,0,1,310.008,269.783Z" transform="translate(-309.997 -214.129)" fill="#ffb1a7"/>
                <path id="Trazado_129" data-name="Trazado 129" d="M316.064,270.667c-.5-.972,11.525,2.577,17.9.617.3-.093.566-.161.955-.279,5.847-1.8,13.672-11.1,13.756-10.038.236,3.1-.406,7.157-1.817,9.464-2.467,4.065-5.526,6.844-10.14,8.247l-.913.287a18.06,18.06,0,0,1-13.435-1.284A16.925,16.925,0,0,1,316.064,270.667Z" transform="translate(-264.907 -231.718)" fill="#ffb1a7"/>
                <path id="Trazado_130" data-name="Trazado 130" d="M322.568,268.376c-.5-.963,11.526,2.586,17.9.625.3-.093.566-.16.955-.279,5.847-1.8,13.671-11.1,13.756-10.039.245,3.1-.406,7.157-1.808,9.464-2.476,4.055-5.534,6.836-10.148,8.247l-.913.279a18.059,18.059,0,0,1-13.435-1.276A17.009,17.009,0,0,1,322.568,268.376Z" transform="translate(-216.454 -248.718)" fill="#ffb1a7"/>
                <path id="Trazado_131" data-name="Trazado 131" d="M328.7,265.716c-.423-.82,9.759,2.18,15.159.524.253-.084.473-.135.8-.237,4.952-1.53,11.576-9.4,11.653-8.5a15.1,15.1,0,0,1-1.538,8.01,14.7,14.7,0,0,1-8.585,6.988l-.777.237a15.294,15.294,0,0,1-11.374-1.082A14.424,14.424,0,0,1,328.7,265.716Z" transform="translate(-170.778 -257.43)" fill="#ffb1a7"/>
              </g>
              <g id="Grupo_105" data-name="Grupo 105" transform="translate(130.528 9.25)">
                <path id="Trazado_132" data-name="Trazado 132" d="M340.113,256.157a3.166,3.166,0,0,1-2.036,4.039l-.093.025-23.313,6.354h0a3.049,3.049,0,0,1-3.7-2.45c-2.037-9.379-3.972-25.129,7.681-28.2C329.635,233.038,336.733,245.1,340.113,256.157Z" transform="translate(-309.432 -235.493)" fill="#ffb1a7" opacity="0.4" style="mix-blend-mode: multiply;isolation: isolate"/>
                <path id="Trazado_133" data-name="Trazado 133" d="M333.365,241.663l-23.313,6.354c.558-4.073,4.579-8,10.14-9.464C325.65,237.117,330.914,238.494,333.365,241.663Z" transform="translate(-304.813 -216.935)" fill="#fff" opacity="0.5"/>
              </g>
              <g id="Grupo_106" data-name="Grupo 106" transform="translate(1.188 271.818)">
                <path id="Trazado_134" data-name="Trazado 134" d="M337.362,289.569l-.093.093-9.4,11.01c-2.442-2.239-4.918-4.343-7.258-6.439-11.762-10.478-22.248-19.088-26.481-22.586,12.531-11.534,30.377-1.428,42.908,10.452A5.46,5.46,0,0,1,337.362,289.569Z" transform="translate(-294.125 -266.568)" fill="#ffb1a7" opacity="0.4" style="mix-blend-mode: multiply;isolation: isolate"/>
                <path id="Trazado_135" data-name="Trazado 135" d="M314.063,269.956l-9.413,11.026c-2.442-2.239-5.07-4.512-7.411-6.608C302.893,269.719,309.272,268.122,314.063,269.956Z" transform="translate(-270.919 -246.861)" fill="#fff" opacity="0.5"/>
              </g>
              <g id="Grupo_107" data-name="Grupo 107" transform="translate(205.02 15.442)">
                <path id="Trazado_136" data-name="Trazado 136" d="M348.92,256.891a3.173,3.173,0,0,1-2.036,4.039l-.093.026-23.313,6.354h0a3.051,3.051,0,0,1-3.693-2.45c-2.036-9.388-3.972-25.138,7.672-28.2C338.452,233.765,345.541,245.831,348.92,256.891Z" transform="translate(-318.248 -236.226)" fill="#ffb1a7" opacity="0.4" style="mix-blend-mode: multiply;isolation: isolate"/>
                <path id="Trazado_137" data-name="Trazado 137" d="M342.18,242.4l-23.313,6.354c.557-4.081,4.588-8.01,10.148-9.472C334.473,237.847,339.729,239.233,342.18,242.4Z" transform="translate(-313.636 -217.672)" fill="#fff" opacity="0.5"/>
              </g>
              <g id="Grupo_108" data-name="Grupo 108" transform="translate(299.46 65.721)">
                <path id="Trazado_138" data-name="Trazado 138" d="M350.349,259.78a2.156,2.156,0,0,1-2.087,2.3h-.068l-16.73-.22h0a2.177,2.177,0,0,1-2.036-2.349c.313-6.641,1.817-17.516,10.157-17.33C347.451,242.356,350.053,251.752,350.349,259.78Z" transform="translate(-329.425 -242.177)" fill="#ffb1a7" opacity="0.4" style="mix-blend-mode: multiply;isolation: isolate"/>
                <path id="Trazado_139" data-name="Trazado 139" d="M346.4,248.587l-16.73-.22c1.1-2.619,4.495-4.47,8.475-4.377C342.045,244.076,345.323,246,346.4,248.587Z" transform="translate(-327.627 -228.686)" fill="#fff" opacity="0.5"/>
              </g>
              <g id="Grupo_109" data-name="Grupo 109" transform="translate(85.455 77.467)">
                <path id="Trazado_140" data-name="Trazado 140" d="M328.444,260.738a2.516,2.516,0,0,1-1.758,3.135l-.076.008L307.8,268.03h0a2.456,2.456,0,0,1-2.865-2.1c-1.309-7.546-2.332-20.153,7.064-22.138C320.864,241.929,326.111,251.8,328.444,260.738Z" transform="translate(-304.098 -243.567)" fill="#ffb1a7" opacity="0.4" style="mix-blend-mode: multiply;isolation: isolate"/>
                <path id="Trazado_141" data-name="Trazado 141" d="M323.345,248.868l-18.809,4.149c.583-3.219,3.929-6.194,8.407-7.14C317.346,244.956,321.494,246.257,323.345,248.868Z" transform="translate(-300.832 -228.554)" fill="#fff" opacity="0.5"/>
              </g>
            </g>
            <g id="Grupo_112" data-name="Grupo 112" transform="translate(250.071 200.875)">
              <g id="Grupo_111" data-name="Grupo 111">
                <path id="Trazado_142" data-name="Trazado 142" d="M324.329,259.853c-6.591,1.462-8.652,9.32-8.069,17.347.845,11.542,18.066,17.271,24.952,6.008C347.7,272.6,336.523,257.15,324.329,259.853Z" transform="translate(-197.857 -247.972)" fill="#fff"/>
                <path id="Trazado_143" data-name="Trazado 143" d="M313.847,266.211c-2.341-1.935-5.881-1.538-8.374,1.927-3.034,4.216-1.132,11.153,4.757,10.486C315.773,278,318.165,269.786,313.847,266.211Z" transform="translate(-288.146 -206.894)" fill="#fff"/>
                <path id="Trazado_144" data-name="Trazado 144" d="M306.649,275.4c-3.617,1.09-5.644,5.036-3.777,10.013,2.282,6.041,10.79,8.864,14.153,2.3C320.2,281.523,313.332,273.386,306.649,275.4Z" transform="translate(-302.164 -132.174)" fill="#fff"/>
                <path id="Trazado_145" data-name="Trazado 145" d="M450.85,376.2c16.967-.938,21.91-24.648,18.488-34.229-5.864-16.418-19.561-19.173-37.415-18.091.152-.135.3-.279.448-.414,8.881-6.219,13.967-17.9,11.213-28.391-2.814-10.7-14.322-18.725-25.18-16.553-5.72,1.141-10.2,4.487-13.671,8.991a19.73,19.73,0,0,0-4.368,3.946c.693-14.888-12.54-29.506-27.428-28.7-24.42,1.344-19.3,24.926-19.933,40.651-4.512-8.6-14.5-14.322-24.1-12.827s-17.618,10.841-16.7,20.507c1.065,11.094,11.661,18.006,22.6,21.732-9.971-1.428-20.938,4.977-24.318,14.711a17.668,17.668,0,0,0-2.848,11.069c.727,7.655,6.033,13.275,12.818,17.271a20.027,20.027,0,0,0,7.453,3.574c.777.3,1.546.625,2.332.887-10.123-1.445-21.285,5.163-24.487,15.142-3.785,11.779,3.27,25.636,14.643,30.52s25.535,1.1,33.849-8.078c-1.665,8.61-.389,18.032,4.8,25.1s14.643,11.179,23.076,8.83c7.875-2.2,13.553-9.413,16.105-17.178s2.518-16.105,2.442-24.276c2.29,6.861,24.166,28.788,44.7,14.407C468.087,408.908,464.513,385.088,450.85,376.2Z" transform="translate(-283.042 -224.214)" fill="#fff"/>
                <path id="Trazado_146" data-name="Trazado 146" d="M313.868,258.443c-5.746,1.267-7.529,8.1-7.022,15.083.735,10.038,15.708,15.024,21.7,5.222C334.19,269.521,324.464,256.094,313.868,258.443Z" transform="translate(-267.896 -258.172)" fill="#fff"/>
              </g>
            </g>
            <g id="Grupo_116" data-name="Grupo 116" transform="translate(0 214.43)">
              <g id="Grupo_113" data-name="Grupo 113">
                <path id="Trazado_147" data-name="Trazado 147" d="M423.86,267.1c6.177,4.6,6.54,11.3,15.159,13.891,5.763,1.732,15.725-3.827,21.673-4.7a25.366,25.366,0,0,1,19.088,5.061c4.935,3.853,9.227,12.041,14.922,14.652,5.534,2.526,17.558-6.76,32.979-2.011,14.694,4.538,18.192,19.088,20.693,20.372,4.766,2.442,25.1-7.494,40.263,2.341l.127.059c15.513,8.407,2.831,38.184.49,45.349-3,9.194-5.991,18.353-8.948,27.377,0,0-14.39,33.926-4.064,40.93,7.892,5.332,36.942-17.77,36.942-17.77,8.83-8.1,25.214-17.685,50.985-23.313,20.246-4.428,32.473,8.636,36.773,14.441a3.194,3.194,0,0,1-.718,4.419l-.05.042c-5.087,3.7-17.347,12.734-31.543,23.9-2.83,2.231-5.737,4.529-8.694,6.921-20.9,16.832-43.66,36.68-53.622,50.673-27.182,38.193-66.338,44.572-80.39,54.872C511.9,554.889,427.359,761,427.359,761l-154.79-61.86,65.358-173.2a76.708,76.708,0,0,0,3.068-32.168c-9.675-77.788,4.622-146.475,42.392-222.159,6.32-12.658,14.711-12.387,22.67-11.441A37.147,37.147,0,0,1,423.86,267.1Z" transform="translate(-272.569 -259.776)" fill="#ffc0b1"/>
              </g>
              <g id="Grupo_114" data-name="Grupo 114" transform="translate(128.273 18.915)" opacity="0.5" style="mix-blend-mode: multiply;isolation: isolate">
                <path id="Trazado_148" data-name="Trazado 148" d="M338.946,275.1c.431-1.005-11.34,3.532-17.846,2.112-.313-.068-.574-.118-.972-.2-5.974-1.3-14.44-9.895-14.449-8.83-.025,3.1.9,7.081,2.467,9.261,2.754,3.828,6,6.337,10.706,7.351l.937.2a18.284,18.284,0,0,0,13.342-2.391A17.253,17.253,0,0,0,338.946,275.1Z" transform="translate(-154.183 -216.798)" fill="#ffb1a7"/>
                <path id="Trazado_149" data-name="Trazado 149" d="M332.276,275.887c.516-.964-11.559,2.408-17.905.363-.3-.1-.558-.169-.946-.3-5.822-1.885-13.511-11.3-13.612-10.233-.287,3.092.3,7.165,1.682,9.489,2.408,4.09,5.424,6.912,10.013,8.391l.921.3a18.067,18.067,0,0,0,13.444-1.09A16.919,16.919,0,0,0,332.276,275.887Z" transform="translate(-198.414 -235.021)" fill="#ffb1a7"/>
                <path id="Trazado_150" data-name="Trazado 150" d="M325.805,273.5c.516-.955-11.559,2.416-17.9.363-.3-.093-.557-.161-.946-.287-5.822-1.885-13.511-11.3-13.613-10.233-.287,3.093.3,7.165,1.681,9.489,2.408,4.09,5.425,6.912,10.021,8.391l.913.3a18.067,18.067,0,0,0,13.443-1.09A16.943,16.943,0,0,0,325.805,273.5Z" transform="translate(-246.621 -252.714)" fill="#ffb1a7"/>
                <path id="Trazado_151" data-name="Trazado 151" d="M315.3,270.687c.431-.811-9.793,2.045-15.159.3-.262-.076-.482-.135-.8-.245-4.935-1.589-11.449-9.565-11.525-8.661a15.048,15.048,0,0,0,1.42,8.036,14.714,14.714,0,0,0,8.483,7.106l.769.245a15.32,15.32,0,0,0,11.39-.921A14.324,14.324,0,0,0,315.3,270.687Z" transform="translate(-287.75 -262.014)" fill="#ffb1a7"/>
              </g>
              <g id="Grupo_115" data-name="Grupo 115" transform="translate(382.25 142.649)">
                <path id="Trazado_152" data-name="Trazado 152" d="M318.911,297.8l.093.1,8.712,11.56c2.577-2.079,5.171-4.031,7.639-5.974,12.387-9.743,23.38-17.693,27.816-20.921-11.8-12.286-30.225-3.287-43.465,7.8A5.471,5.471,0,0,0,318.911,297.8Z" transform="translate(-317.807 -276.658)" fill="#ffb1a7" opacity="0.4" style="mix-blend-mode: multiply;isolation: isolate"/>
                <path id="Trazado_153" data-name="Trazado 153" d="M317.949,279.621l8.72,11.576c2.578-2.079,5.332-4.183,7.8-6.135C329.111,280.069,322.849,278.083,317.949,279.621Z" transform="translate(-316.752 -258.38)" fill="#fff" opacity="0.5"/>
              </g>
            </g>
          </g>
          <g id="Grupo_119" data-name="Grupo 119" transform="translate(133.772 329.061)">
            <g id="Grupo_118" data-name="Grupo 118" transform="translate(85.623 25.048)">
              <path id="Trazado_154" data-name="Trazado 154" d="M298.534,302.507l7.735-26.2,24.726,13.546" transform="translate(-298.534 -276.307)" fill="none" stroke="#678cff" stroke-linecap="round" stroke-linejoin="round" stroke-width="7.06"/>
            </g>
            <path id="Trazado_155" data-name="Trazado 155" d="M382.626,303.242c15.133,22.248,15.167,49.8-1.31,65.51-18.834,17.956-52.1,13.629-74.3-9.658s-24.935-56.722-6.1-74.678c11.129-10.6,27.3-13.435,43.246-9.168" transform="translate(-288.401 -273.342)" fill="none" stroke="#678cff" stroke-linecap="round" stroke-linejoin="round" stroke-width="7.06"/>
          </g>
        </g>
      </g>
    </g>
  </g>
</svg>
