<svg xmlns="http://www.w3.org/2000/svg" xmlns:xlink="http://www.w3.org/1999/xlink" width="800" height="800" viewBox="0 0 800 800"><defs><clipPath id="a"><circle cx="361.538" cy="361.538" r="361.538" fill="none"/></clipPath><clipPath id="c"><rect width="800" height="800"/></clipPath></defs><g id="b" clip-path="url(#c)"><rect width="800" height="800" fill="#fff"/><g transform="translate(261.784 313.042)"><g transform="translate(-223.718 -274.636)"><g clip-path="url(#a)"><g transform="translate(7.226 126.011)"><path d="M302.149,1009.257,153.7,883.129S354.388,636.184,355.244,619.284c.856-16.916-14.96-53.633,1.621-94.921,6.063-15.123,10.047-44.025,12.565-69.9.367-3.667.676-7.244.986-10.723,1.491-17.454,2.282-32.243,2.575-38.363v-.057a2.842,2.842,0,0,1,3.219-2.7c7.056,1,24.274,5.41,31.534,24.926,9.24,24.828,10.218,43.431,8.344,54.822,0,0-3.259,35.836,5.329,40.139,11.269,5.606,31.225-22.661,31.225-22.661,35.845-41.924,74.794-87.783,104.967-117.63,4.164-4.123,8.482-8.352,13.925-10.528s12.353-1.793,16.346,2.493c5.835,6.241,2.7,16.3-1.034,23.989C572.488,427.659,513.7,508.572,520.713,511.4c7.9,3.023,75.56-95.214,116.725-131.1,5.386-4.677,22.995-12.329,32.26-4.188,13.054,11.457-4.041,36.187-9.574,44.515-26.743,40.22-96.811,126.381-91.066,131.107,5.818,4.783,69.913-68.7,99.467-97.829,5.166-5.1,10.536-10.324,17.25-13.1,6.731-2.754,15.229-2.5,20.428,2.575,4.84,4.734,5.639,12.483,3.724,18.961-1.907,6.5-6.095,12.06-10.185,17.454C675.206,512.174,604.169,590.814,613,595.344c8.474,4.327,48.727-37.368,74.28-54.977,7.358-5.076,23.313-9.6,28.454-2.314,4.025,5.7,1.255,17.177-5.484,25.691-13.836,17.478-34.679,34.688-50.487,50.39C602.352,671.116,549.509,718.63,473.5,746.285Z" transform="translate(-153.702 -370.398)" fill="#ffaf9f"/><g transform="translate(239.228 164.714)" opacity="0.6" style="mix-blend-mode:multiply;isolation:isolate"><path d="M212.833,391.189a199.3,199.3,0,0,1,3.683,68.911c-3.479,27.672-29.473,77.58-29.473,77.58s36.089-43.21,43.749-71.061C241.6,427.286,212.833,391.189,212.833,391.189Z" transform="translate(-154.596 -386.487)" fill="#ffb1a7"/><path d="M191.222,390.612s50.7,38.982,66.719,56.794S299,499.955,299,499.955s-57.193-48.328-68.129-61.692C216.409,420.6,191.222,390.612,191.222,390.612Z" transform="translate(-124.723 -390.612)" fill="#ffb1a7"/><path d="M269.279,447.034s-35.755,1.491-55.23-9.884c-22.025-12.866-30.988-25.219-30.988-25.219s13.355,29.758,37.988,37.922C249.014,459.126,269.279,447.034,269.279,447.034Z" transform="translate(-183.061 -238.216)" fill="#ffb1a7"/></g><path d="M333.024,853.458C427.8,812.724,612.407,677.974,612.081,677.3c-12.2-25.1-80.865-115.74-80.865-115.74s-43.423-112.064-72.088-190.077C342.467,475.96,303.086,478.592,172.15,551.047l59.475,154.925Z" transform="translate(-21.829 -362.654)" fill="#f5fbff"/><g transform="translate(225.953 99.832)"><path d="M657.493,929.883l-133.487,89.322S388.279,788.737,373.123,781.558c-15.189-7.187-53.429-6.095-86.129-37.3-11.986-11.432-37.165-26.083-60.021-38.216-3.235-1.719-6.4-3.365-9.485-4.962-15.482-7.986-28.739-14.309-34.231-16.891l-.057-.025a3.1,3.1,0,0,1-1.491-4.058c3.023-6.282,12.214-20.876,32.2-20.379,25.423.635,42.689,6.722,52.524,12.785,0,0,31.722,16.582,38.216,10.1,8.507-8.515-11.31-38.021-11.31-38.021-27.509-49.64-57.674-103.7-75.861-143.436-2.51-5.484-5.076-11.163-5.427-17.119s2.07-12.337,7.171-14.5c7.448-3.154,15.694,3.6,21.577,10.022,22.6,24.674,78.811,110.671,83.488,105.114,5.125-6.315-64.226-107.225-84.621-159.619-2.656-6.853-4.359-26.36,5.842-32.039,14.374-8,31.811,17.454,37.751,25.822,28.682,40.4,86.291,139.044,92.321,135.393,6.119-3.683-41.712-91.905-59.434-130.789-3.1-6.8-6.266-13.836-6.788-21.227-.5-7.382,2.282-15.319,8.474-18.317,5.777-2.779,13.078-.611,18.423,3.642,5.362,4.245,9.175,10.292,12.866,16.191,22.2,35.364,72.651,132.077,79.439,125.445,6.486-6.372-12.712-62.669-17.486-94.2-1.377-9.077,1.222-25.651,9.6-26.8,6.551-.9,15.327,7.122,19.923,17.291,9.444,20.892,25.871,92.353,35.454,113.2,34.777,75.682,45.973,96.933,48.409,179.117Z" transform="translate(-181.432 -382.649)" fill="#ffc0b1"/><g transform="translate(120.687 148.089)" opacity="0.5" style="mix-blend-mode:multiply;isolation:isolate"><path d="M196.267,425.035c-.627-.847,11.44.733,17.218-2.07.277-.13.505-.236.864-.407,5.3-2.567,11.286-12.548,11.538-11.555.725,2.909.758,6.845-.212,9.24a16.462,16.462,0,0,1-8.368,9.322l-.831.4a17.614,17.614,0,0,1-13.046.782A16.735,16.735,0,0,1,196.267,425.035Z" transform="translate(-196.243 -328.553)" fill="#ffb1a7"/><path d="M201.642,424.11c-.693-.79,11.391-.359,16.867-3.716.269-.163.489-.285.823-.489,5.036-3.088,10.112-13.648,10.446-12.679.97,2.844,1.336,6.788.57,9.281a16.751,16.751,0,0,1-7.489,10.136l-.79.473a17.42,17.42,0,0,1-12.85,2.037A16.411,16.411,0,0,1,201.642,424.11Z" transform="translate(-157.854 -355.504)" fill="#ffb1a7"/><path d="M207.374,420.274c-.693-.782,11.391-.359,16.867-3.716.269-.163.489-.285.823-.489,5.036-3.08,10.112-13.649,10.446-12.671.97,2.836,1.336,6.78.57,9.273a16.729,16.729,0,0,1-7.488,10.137l-.79.481a17.454,17.454,0,0,1-12.85,2.029A16.408,16.408,0,0,1,207.374,420.274Z" transform="translate(-116.879 -382.869)" fill="#ffb1a7"/><path d="M212.975,415.177c-.595-.668,9.64-.31,14.276-3.153.228-.131.416-.236.7-.416,4.262-2.608,8.556-11.554,8.841-10.732a14.538,14.538,0,0,1,.489,7.855,14.14,14.14,0,0,1-6.348,8.58l-.668.408a14.714,14.714,0,0,1-10.878,1.719A13.822,13.822,0,0,1,212.975,415.177Z" transform="translate(-76.817 -400.823)" fill="#ffb1a7"/></g><g transform="translate(61.416 17.261)"><path d="M219.6,400.048a3.055,3.055,0,0,1-.937,4.262l-.073.041-20.249,11.538h0a2.947,2.947,0,0,1-4.042-1.41c-4.156-8.278-9.745-22.522.4-28.177C204.271,380.964,213.788,390.531,219.6,400.048Z" transform="translate(-188.969 -384.768)" fill="#ffb1a7" opacity="0.4" style="mix-blend-mode:multiply;isolation:isolate"/><path d="M210.41,388.712,190.161,400.25c-.456-3.944,2.355-8.58,7.195-11.285C202.115,386.317,207.363,386.341,210.41,388.712Z" transform="translate(-180.791 -369.13)" fill="#fff" opacity="0.5"/></g><g transform="translate(1.834 293.061)"><path d="M226.343,433.535l-.065.114-6.144,12.532c-2.819-1.5-5.639-2.877-8.32-4.27-13.51-6.967-25.366-12.484-30.157-14.74,8.939-13.779,28.022-8.621,42.583-.53A5.263,5.263,0,0,1,226.343,433.535Z" transform="translate(-181.657 -418.615)" fill="#ffb1a7" opacity="0.4" style="mix-blend-mode:multiply;isolation:isolate"/><path d="M199.986,420.519l-6.152,12.548c-2.82-1.5-5.81-2.991-8.5-4.384C189.491,422.979,195.064,419.956,199.986,420.519Z" transform="translate(-155.365 -405.485)" fill="#fff" opacity="0.5"/></g><g transform="translate(132.475 5.172)"><path d="M228.322,398.57a3.061,3.061,0,0,1-.937,4.261l-.082.041L207.055,414.4h0a2.946,2.946,0,0,1-4.042-1.4c-4.156-8.279-9.737-22.53.408-28.185C212.987,379.485,222.5,389.044,228.322,398.57Z" transform="translate(-197.69 -383.284)" fill="#ffb1a7" opacity="0.4" style="mix-blend-mode:multiply;isolation:isolate"/><path d="M219.13,387.229l-20.249,11.53c-.456-3.944,2.363-8.58,7.2-11.278C210.835,384.834,216.082,384.858,219.13,387.229Z" transform="translate(-189.516 -367.642)" fill="#fff" opacity="0.5"/></g><g transform="translate(232.975 30.15)"><path d="M230.578,400.434a2.081,2.081,0,0,1-1.394,2.656l-.065.016-15.678,3.805h0a2.089,2.089,0,0,1-2.461-1.7c-1.312-6.282-2.51-16.8,5.329-18.627C223.692,384.862,228.378,393.011,230.578,400.434Z" transform="translate(-210.023 -386.349)" fill="#ffb1a7" opacity="0.4" style="mix-blend-mode:multiply;isolation:isolate"/><path d="M226.121,390.7l-15.678,3.805c.4-2.705,3.129-5.247,6.861-6.119C220.979,387.533,224.5,388.543,226.121,390.7Z" transform="translate(-207.025 -373.945)" fill="#fff" opacity="0.5"/></g><g transform="translate(35.183 92.44)"><path d="M210.124,406.877a2.414,2.414,0,0,1-.9,3.349l-.065.032L192.6,418.643h0a2.371,2.371,0,0,1-3.186-1.272c-3.031-6.731-7.008-18.26,1.287-22.367C198.529,391.134,205.805,399.095,210.124,406.877Z" transform="translate(-185.75 -393.994)" fill="#ffb1a7" opacity="0.4" style="mix-blend-mode:multiply;isolation:isolate"/><path d="M203.17,397.417,186.6,405.8c-.236-3.145,2.176-6.722,6.136-8.686C196.626,395.193,200.815,395.421,203.17,397.417Z" transform="translate(-179.757 -381.154)" fill="#fff" opacity="0.5"/></g></g></g></g></g></g></g></svg>