<svg xmlns="http://www.w3.org/2000/svg" xmlns:xlink="http://www.w3.org/1999/xlink" width="800" height="800" viewBox="0 0 800 800">
  <defs>
    <clipPath id="clip-path">
      <circle id="Elipse_32" data-name="Elipse 32" cx="333.812" cy="333.812" r="333.812" fill="none"/>
    </clipPath>
    <clipPath id="clip-_9">
      <rect width="800" height="800"/>
    </clipPath>
  </defs>
  <g id="_9" data-name="9" clip-path="url(#clip-_9)">
    <g id="Grupo_202" data-name="Grupo 202" transform="translate(65.699 65.724)">
      <g id="Grupo_201" data-name="Grupo 201">
        <g id="Grupo_200" data-name="Grupo 200" clip-path="url(#clip-path)">
          <g id="Grupo_193" data-name="Grupo 193" transform="translate(349.098 244.242)">
            <g id="Grupo_191" data-name="Grupo 191" transform="translate(14.046 97.234)">
              <path id="Trazado_225" data-name="Trazado 225" d="M382.121,534.156h-69.4V507A106.8,106.8,0,0,1,419.392,400.321H603.764v69.4H419.392A37.31,37.31,0,0,0,382.121,507Z" transform="translate(-312.717 -400.321)" fill="#a5b7ff"/>
            </g>
            <path id="Trazado_226" data-name="Trazado 226" d="M397.588,438.3H321.225a10.41,10.41,0,0,1-10.375-10.375h0a10.4,10.4,0,0,1,10.375-10.367h76.364a10.4,10.4,0,0,1,10.375,10.367h0A10.41,10.41,0,0,1,397.588,438.3Z" transform="translate(-310.85 -190.642)" fill="#a5b7ff"/>
            <path id="Trazado_227" data-name="Trazado 227" d="M350.48,496.68V408.068A10.4,10.4,0,0,1,360.848,397.7h0a10.4,10.4,0,0,1,10.375,10.367V496.68a10.4,10.4,0,0,1-10.375,10.375h0A10.4,10.4,0,0,1,350.48,496.68Z" transform="translate(-52.324 -320.179)" fill="#a5b7ff"/>
            <path id="Trazado_228" data-name="Trazado 228" d="M411.163,418.114H340.909a12.36,12.36,0,0,1-12.331-12.323h0a12.36,12.36,0,0,1,12.331-12.324h70.254a12.364,12.364,0,0,1,12.323,12.324h0A12.364,12.364,0,0,1,411.163,418.114Z" transform="translate(-195.201 -347.799)" fill="#a5b7ff"/>
            <g id="Grupo_192" data-name="Grupo 192" transform="translate(111.581 11.684)">
              <path id="Trazado_229" data-name="Trazado 229" d="M393.117,413.6s-58.194-5.545-58.194-12.323h0c0-6.779,58.194-12.324,58.194-12.324a12.359,12.359,0,0,1,12.323,12.324h0A12.359,12.359,0,0,1,393.117,413.6Z" transform="translate(-265.391 -388.95)" fill="#a5b7ff"/>
              <path id="Trazado_230" data-name="Trazado 230" d="M338,413.6s58.194-5.545,58.194-12.323h0C396.2,394.495,338,388.95,338,388.95a12.359,12.359,0,0,0-12.323,12.324h0A12.358,12.358,0,0,0,338,413.6Z" transform="translate(-325.681 -388.95)" fill="#a5b7ff"/>
            </g>
            <path id="Trazado_231" data-name="Trazado 231" d="M332.865,496.315V403.655A16.311,16.311,0,0,1,349.123,387.4h0a16.305,16.305,0,0,1,16.251,16.258v92.659a16.3,16.3,0,0,1-16.251,16.251h0A16.3,16.3,0,0,1,332.865,496.315Z" transform="translate(-167.235 -387.397)" fill="#a5b7ff"/>
            <ellipse id="Elipse_30" data-name="Elipse 30" cx="75.345" cy="68.391" rx="75.345" ry="68.391" transform="translate(105.649 63.311)" fill="#a5b7ff"/>
          </g>
          <g id="Grupo_196" data-name="Grupo 196" transform="translate(349.098 244.242)" opacity="0.4" style="mix-blend-mode: multiply;isolation: isolate">
            <g id="Grupo_194" data-name="Grupo 194" transform="translate(14.046 97.234)">
              <path id="Trazado_232" data-name="Trazado 232" d="M382.121,534.156h-69.4V507A106.8,106.8,0,0,1,419.392,400.321H603.764v69.4H419.392A37.31,37.31,0,0,0,382.121,507Z" transform="translate(-312.717 -400.321)" fill="#8e9edc"/>
            </g>
            <path id="Trazado_233" data-name="Trazado 233" d="M397.588,438.3H321.225a10.41,10.41,0,0,1-10.375-10.375h0a10.4,10.4,0,0,1,10.375-10.367h76.364a10.4,10.4,0,0,1,10.375,10.367h0A10.41,10.41,0,0,1,397.588,438.3Z" transform="translate(-310.85 -190.642)" fill="#8e9edc"/>
            <path id="Trazado_234" data-name="Trazado 234" d="M350.48,496.68V408.068A10.4,10.4,0,0,1,360.848,397.7h0a10.4,10.4,0,0,1,10.375,10.367V496.68a10.4,10.4,0,0,1-10.375,10.375h0A10.4,10.4,0,0,1,350.48,496.68Z" transform="translate(-52.324 -320.179)" fill="#8e9edc"/>
            <path id="Trazado_235" data-name="Trazado 235" d="M411.163,418.114H340.909a12.36,12.36,0,0,1-12.331-12.323h0a12.36,12.36,0,0,1,12.331-12.324h70.254a12.364,12.364,0,0,1,12.323,12.324h0A12.364,12.364,0,0,1,411.163,418.114Z" transform="translate(-195.201 -347.799)" fill="#8e9edc"/>
            <g id="Grupo_195" data-name="Grupo 195" transform="translate(111.581 11.684)">
              <path id="Trazado_236" data-name="Trazado 236" d="M393.117,413.6s-58.194-5.545-58.194-12.323h0c0-6.779,58.194-12.324,58.194-12.324a12.359,12.359,0,0,1,12.323,12.324h0A12.359,12.359,0,0,1,393.117,413.6Z" transform="translate(-265.391 -388.95)" fill="#8e9edc"/>
              <path id="Trazado_237" data-name="Trazado 237" d="M338,413.6s58.194-5.545,58.194-12.323h0C396.2,394.495,338,388.95,338,388.95a12.359,12.359,0,0,0-12.323,12.324h0A12.358,12.358,0,0,0,338,413.6Z" transform="translate(-325.681 -388.95)" fill="#8e9edc"/>
            </g>
            <path id="Trazado_238" data-name="Trazado 238" d="M332.865,496.315V403.655A16.311,16.311,0,0,1,349.123,387.4h0a16.305,16.305,0,0,1,16.251,16.258v92.659a16.3,16.3,0,0,1-16.251,16.251h0A16.3,16.3,0,0,1,332.865,496.315Z" transform="translate(-167.235 -387.397)" fill="#8e9edc"/>
            <ellipse id="Elipse_31" data-name="Elipse 31" cx="75.345" cy="68.391" rx="75.345" ry="68.391" transform="translate(105.649 63.311)" fill="#8e9edc"/>
          </g>
          <g id="Grupo_199" data-name="Grupo 199" transform="translate(-109.607 150.094)">
            <path id="Trazado_239" data-name="Trazado 239" d="M302.612,444.469l120.363.47,117.58-66.966,84.918,35.83L439.063,530.833,335.317,574.063Z" transform="translate(94.114 -354.722)" fill="#f5fbff"/>
            <path id="Trazado_240" data-name="Trazado 240" d="M494.643,498.237l25.226,48.451h0c-146.362,27.7-235.4-4.469-235.4-4.469V447.559c51.776-26.31,144.361-69.585,157.1-71.737,22.375-3.769,44.848,4.492,66.041,12.609,33.269,12.745,54.546,29.214,83.225,50.076-21.645,11.045-49.016,26.069-49.016,26.069s-54.508-10.819-59.639-2.272C476.383,471.95,483.441,497.146,494.643,498.237Z" transform="translate(-24.209 -374.883)" fill="#ffc0b1"/>
            <g id="Grupo_198" data-name="Grupo 198" transform="translate(463.968 122.564)">
              <path id="Trazado_241" data-name="Trazado 241" d="M343.242,440.415c13.768-2.768,38.453-1.873,60.331-.218,3.1.226,6.124.481,9.051.737,14.716,1.287,27.085,2.754,32.185,3.394l.053.007a2.619,2.619,0,0,0,2.9-2.234c.677-5.876.7-20.494-13.851-29.191-18.515-11.06-33.645-14.513-43.44-14.618l-78.531-7.117S305.662,447.976,343.242,440.415Z" transform="translate(-311.55 -391.174)" fill="#ffc0b1"/>
              <g id="Grupo_197" data-name="Grupo 197" transform="translate(97.019 33.533)">
                <path id="Trazado_242" data-name="Trazado 242" d="M325.725,399.632l-.008.113-1.271,11.767c2.7.2,5.342.489,7.9.707,12.835,1.121,23.842,2.528,28.3,3.085-.166-13.926-16.191-18.869-30.29-19.667A4.462,4.462,0,0,0,325.725,399.632Z" transform="translate(-324.439 -395.631)" fill="#ffb1a7" opacity="0.4" style="mix-blend-mode: multiply;isolation: isolate"/>
                <path id="Trazado_243" data-name="Trazado 243" d="M325.724,396.178l-1.279,11.781c2.708.2,5.53.482,8.087.7C332.134,402.686,329.508,398,325.724,396.178Z" transform="translate(-324.445 -392.064)" fill="#fff" opacity="0.5"/>
              </g>
            </g>
            <path id="Trazado_244" data-name="Trazado 244" d="M510.149,402.477,249.88,381.793v131.59l260.268-16.24Z" transform="translate(-249.88 -329.804)" fill="#ffc0b1"/>
          </g>
          <path id="Trazado_245" data-name="Trazado 245" d="M314.266,482.8c.467,11.872,11.36,21.081,24.338,20.576s23.12-10.547,22.653-22.42-25.783-57.577-25.783-57.577S313.8,470.931,314.266,482.8Z" transform="translate(60.48 91.6)" fill="#7daeff"/>
        </g>
      </g>
    </g>
  </g>
</svg>
